<?xml version="1.0" encoding="UTF-8"?>
<svg xmlns="http://www.w3.org/2000/svg" width="720" height="400" viewBox="0 0 720 400" fill="none">
  <rect x="418" y="33" width="251" height="255.922" rx="8" fill="#EDEEF0"></rect>
  <path d="M543.428 132.953C545.116 132.953 546.485 134.322 546.485 136.01V158.429H568.904C570.592 158.429 571.961 159.798 571.961 161.486C571.961 163.175 570.592 164.543 568.904 164.543H546.485V186.962C546.485 188.65 545.116 190.019 543.428 190.019C541.739 190.019 540.371 188.65 540.371 186.962V164.543H517.952C516.263 164.543 514.895 163.175 514.895 161.486C514.895 159.798 516.263 158.429 517.952 158.429H540.371V136.01C540.371 134.322 541.739 132.953 543.428 132.953Z" fill="#DADDE1"></path>
  <g filter="url(#filter0_d_9533_33665)">
    <g clip-path="url(#clip0_9533_33665)">
      <rect x="48" y="33" width="321.726" height="253.082" rx="8" fill="white"></rect>
      <path d="M60.1638 53.0002C60.1638 49.1675 63.2708 46.0605 67.1034 46.0605C70.9361 46.0605 74.0431 49.1675 74.0431 53.0002C74.0431 56.8329 70.9361 59.9399 67.1034 59.9399C63.2708 59.9399 60.1638 56.8329 60.1638 53.0002ZM67.1034 47.0761C63.8317 47.0761 61.1793 49.7284 61.1793 53.0002C61.1793 56.272 63.8317 58.9243 67.1034 58.9243C70.3752 58.9243 73.0275 56.272 73.0275 53.0002C73.0275 49.7284 70.3752 47.0761 67.1034 47.0761ZM66.6018 57.164C66.6018 57.4514 66.8349 57.6845 67.1223 57.6845C67.4098 57.6845 67.6428 57.4514 67.6428 57.164V56.4148C68.6334 56.2064 69.4283 55.4803 69.4283 54.4735C69.4283 54.1853 69.37 53.9183 69.2305 53.6688C69.095 53.4265 68.9012 53.2338 68.6827 53.0635C68.2779 52.748 67.91 52.6318 67.504 52.5034C67.444 52.4845 67.3831 52.4652 67.3212 52.445C67.2059 52.4075 67.0879 52.3777 66.9892 52.3528L66.9363 52.3394C66.8207 52.3099 66.7253 52.2833 66.6338 52.2478C66.5287 52.2071 66.3998 52.1401 66.2873 52.0761C66.2333 52.0454 66.1872 52.0177 66.1549 51.9979L66.1266 51.9804C65.991 51.8718 65.9224 51.7842 65.8839 51.7097C65.8453 51.6349 65.8197 51.5396 65.8197 51.389C65.8197 50.9811 66.2625 50.4623 67.1113 50.4293C67.1182 50.4292 67.1251 50.4289 67.1319 50.4286C67.1497 50.428 67.1677 50.4277 67.1859 50.4276C67.6678 50.4512 67.962 50.5759 68.1404 50.6932C68.3212 50.812 68.4142 50.9435 68.4661 51.0268C68.6182 51.2707 68.9392 51.3452 69.1831 51.1932C69.4271 51.0411 69.5016 50.7201 69.3495 50.4762C69.2511 50.3182 69.0621 50.0533 68.712 49.8233C68.437 49.6425 68.0813 49.4955 67.624 49.4261L67.6241 48.8364C67.6241 48.549 67.3911 48.316 67.1036 48.3159C66.8162 48.3159 66.5831 48.5489 66.5831 48.8364L66.5831 49.4521C65.5981 49.6643 64.7787 50.3786 64.7787 51.389C64.7787 51.6672 64.8282 51.9338 64.9588 52.1869C65.0878 52.4369 65.2778 52.6388 65.5055 52.8162L65.5239 52.8305L65.5435 52.8432L65.5442 52.8436L65.5454 52.8444L65.5494 52.847L65.563 52.8556C65.5744 52.8628 65.5905 52.8729 65.6106 52.8852C65.6505 52.9096 65.7066 52.9433 65.7724 52.9808C65.8995 53.0531 66.0808 53.1499 66.2576 53.2184C66.4104 53.2776 66.5561 53.3167 66.6786 53.3479L66.7432 53.3643C66.8416 53.3893 66.9199 53.4091 66.9986 53.4348C67.0701 53.458 67.1357 53.4791 67.1964 53.4985C67.6056 53.6298 67.7928 53.6898 68.0428 53.8846C68.2002 54.0073 68.2789 54.0999 68.322 54.1769C68.361 54.2467 68.3873 54.3329 68.3873 54.4735C68.3873 54.8983 67.9613 55.409 67.1071 55.4341C67.0929 55.4345 67.0492 55.4348 67.0213 55.4349C66.5392 55.4114 66.2451 55.2866 66.0667 55.1694C65.8858 55.0505 65.7928 54.9191 65.7409 54.8358C65.5889 54.5918 65.2678 54.5173 65.0239 54.6694C64.78 54.8214 64.7055 55.1424 64.8575 55.3864C64.9559 55.5443 65.1449 55.8092 65.495 56.0393C65.7738 56.2225 66.1355 56.371 66.6018 56.4393V57.164ZM65.8255 52.4057L65.5435 52.8432C65.5435 52.8432 65.5434 52.8431 65.8255 52.4057Z" fill="#21232C"></path>
      <path d="M80.9592 57V48.8306H83.7198C85.4311 48.8306 86.7427 49.4302 86.7427 51.2665C86.7427 52.5031 86.1057 53.2651 85.1313 53.6023L87.0675 57H85.4061L83.6573 53.8272H82.4457V57H80.9592ZM82.4457 52.6405H83.5699C84.6816 52.6405 85.2812 52.1783 85.2812 51.2665C85.2812 50.3421 84.6816 50.0173 83.5699 50.0173H82.4457V52.6405ZM90.7398 57.1499C89.0409 57.1499 87.7168 55.9757 87.7168 53.9271C87.7168 51.9285 89.1159 50.7043 90.5524 50.7043C92.2137 50.7043 93.1131 51.9035 93.1131 53.6273C93.1131 53.9271 93.0881 54.152 93.0382 54.3768H89.1658C89.3157 55.4011 89.9653 56.0007 90.9396 56.0007C91.4643 56.0007 91.9389 55.8508 92.3636 55.576L92.8633 56.5003C92.2887 56.9251 91.5392 57.1499 90.7398 57.1499ZM89.1658 53.2776H91.814C91.814 52.3782 91.3893 51.8536 90.5899 51.8536C89.8903 51.8536 89.2908 52.3532 89.1658 53.2776ZM95.8839 57.1499C94.8471 57.1499 94.4599 56.4754 94.4599 55.3886V48.1811H95.9463V55.4636C95.9463 55.8258 96.1087 55.9507 96.2586 55.9507C96.3336 55.9507 96.3835 55.9507 96.4835 55.9257L96.6583 57.0125C96.4835 57.0999 96.2336 57.1499 95.8839 57.1499ZM99.3622 57.1499C98.288 57.1499 97.5385 56.4254 97.5385 55.3511C97.5385 54.0021 98.6127 53.3275 101.136 53.0527C101.111 52.4282 100.861 51.9035 100.037 51.9035C99.4372 51.9035 98.8626 52.1533 98.313 52.4781L97.7883 51.5038C98.4629 51.0791 99.3372 50.7043 100.312 50.7043C101.836 50.7043 102.61 51.6537 102.61 53.365V57H101.411L101.286 56.3255H101.236C100.686 56.8001 100.087 57.1499 99.3622 57.1499ZM99.8119 55.9757C100.312 55.9757 100.686 55.7758 101.136 55.3511V54.052C99.4622 54.2519 98.9625 54.6266 98.9625 55.2512C98.9625 55.7758 99.3123 55.9757 99.8119 55.9757ZM106.295 57.1499C104.858 57.1499 104.334 56.2505 104.334 54.9139V52.0284H103.459V50.9292L104.409 50.8542L104.584 48.9431H105.808V50.8542H107.369V52.0284H105.808V54.9139C105.808 55.6259 106.095 55.9757 106.67 55.9757C106.882 55.9757 107.094 55.9382 107.307 55.8508L107.569 56.8876C107.244 57.0375 106.795 57.1499 106.295 57.1499ZM110.987 57.1499C109.451 57.1499 108.052 55.9757 108.052 53.9396C108.052 51.891 109.451 50.7043 110.987 50.7043C112.511 50.7043 113.91 51.891 113.91 53.9396C113.91 55.9757 112.511 57.1499 110.987 57.1499ZM110.987 55.9507C111.874 55.9507 112.399 55.1513 112.399 53.9396C112.399 52.7155 111.874 51.916 110.987 51.916C110.101 51.916 109.576 52.7155 109.576 53.9396C109.576 55.1513 110.101 55.9507 110.987 55.9507ZM110.463 49.8424L109.726 49.1179L112.099 46.9319L112.949 47.9063L110.463 49.8424ZM115.307 57V50.8542H116.519L116.631 51.9535H116.669C117.119 51.154 117.768 50.7043 118.418 50.7043C118.73 50.7043 118.93 50.7543 119.117 50.8293L118.817 52.0909C118.63 52.0409 118.48 52.0159 118.23 52.0159C117.743 52.0159 117.156 52.3407 116.794 53.2776V57H115.307ZM120.004 57V50.8542H121.49V57H120.004ZM120.753 49.805C120.229 49.805 119.866 49.4677 119.866 48.968C119.866 48.4684 120.229 48.1311 120.753 48.1311C121.278 48.1311 121.64 48.4684 121.64 48.968C121.64 49.4677 121.278 49.805 120.753 49.805ZM125.821 57.1499C124.284 57.1499 122.885 55.9757 122.885 53.9396C122.885 51.891 124.284 50.7043 125.821 50.7043C127.345 50.7043 128.744 51.891 128.744 53.9396C128.744 55.9757 127.345 57.1499 125.821 57.1499ZM125.821 55.9507C126.708 55.9507 127.232 55.1513 127.232 53.9396C127.232 52.7155 126.708 51.916 125.821 51.916C124.934 51.916 124.409 52.7155 124.409 53.9396C124.409 55.1513 124.934 55.9507 125.821 55.9507ZM134.803 57.1499C133.266 57.1499 132.279 55.9632 132.279 53.9396C132.279 51.9285 133.528 50.7043 134.877 50.7043C135.564 50.7043 136.002 50.9667 136.476 51.3789L136.414 50.3921V48.1811H137.888V57H136.689L136.576 56.338H136.526C136.077 56.7876 135.452 57.1499 134.803 57.1499ZM135.165 55.9257C135.627 55.9257 136.027 55.7259 136.414 55.2512V52.4282C136.002 52.0534 135.602 51.9285 135.19 51.9285C134.428 51.9285 133.791 52.653 133.791 53.9146C133.791 55.2387 134.29 55.9257 135.165 55.9257ZM142.328 57.1499C140.629 57.1499 139.305 55.9757 139.305 53.9271C139.305 51.9285 140.704 50.7043 142.14 50.7043C143.802 50.7043 144.701 51.9035 144.701 53.6273C144.701 53.9271 144.676 54.152 144.626 54.3768H140.754C140.904 55.4011 141.553 56.0007 142.528 56.0007C143.052 56.0007 143.527 55.8508 143.952 55.576L144.451 56.5003C143.877 56.9251 143.127 57.1499 142.328 57.1499ZM140.754 53.2776H143.402C143.402 52.3782 142.977 51.8536 142.178 51.8536C141.478 51.8536 140.879 52.3532 140.754 53.2776ZM150.71 57.1499C149.173 57.1499 148.186 55.9632 148.186 53.9396C148.186 51.9285 149.435 50.7043 150.784 50.7043C151.471 50.7043 151.909 50.9667 152.383 51.3789L152.321 50.3921V48.1811H153.795V57H152.596L152.483 56.338H152.433C151.984 56.7876 151.359 57.1499 150.71 57.1499ZM151.072 55.9257C151.534 55.9257 151.934 55.7259 152.321 55.2512V52.4282C151.909 52.0534 151.509 51.9285 151.097 51.9285C150.335 51.9285 149.698 52.653 149.698 53.9146C149.698 55.2387 150.197 55.9257 151.072 55.9257ZM158.235 57.1499C156.536 57.1499 155.212 55.9757 155.212 53.9271C155.212 51.9285 156.611 50.7043 158.047 50.7043C159.709 50.7043 160.608 51.9035 160.608 53.6273C160.608 53.9271 160.583 54.152 160.533 54.3768H156.661C156.811 55.4011 157.46 56.0007 158.435 56.0007C158.959 56.0007 159.434 55.8508 159.859 55.576L160.358 56.5003C159.784 56.9251 159.034 57.1499 158.235 57.1499ZM156.661 53.2776H159.309C159.309 52.3782 158.884 51.8536 158.085 51.8536C157.385 51.8536 156.786 52.3532 156.661 53.2776ZM163.679 57.1499C162.829 57.1499 161.955 56.8251 161.355 56.2505L162.005 55.4136C162.542 55.8508 163.104 56.0382 163.729 56.0382C164.378 56.0382 164.69 55.7384 164.69 55.3262C164.69 54.814 164.091 54.6141 163.404 54.3643C162.517 54.0395 161.692 53.5274 161.692 52.5531C161.692 51.4788 162.567 50.7043 163.941 50.7043C164.778 50.7043 165.49 51.0166 165.989 51.4538L165.352 52.2908C164.915 51.966 164.466 51.8161 163.978 51.8161C163.366 51.8161 163.091 52.1159 163.091 52.4781C163.091 52.9278 163.529 53.1027 164.303 53.365C165.253 53.6898 166.089 54.1769 166.089 55.2387C166.089 56.3005 165.24 57.1499 163.679 57.1499ZM169.97 57.1499C168.271 57.1499 166.947 55.9757 166.947 53.9271C166.947 51.9285 168.346 50.7043 169.782 50.7043C171.444 50.7043 172.343 51.9035 172.343 53.6273C172.343 53.9271 172.318 54.152 172.268 54.3768H168.396C168.546 55.4011 169.195 56.0007 170.17 56.0007C170.694 56.0007 171.169 55.8508 171.594 55.576L172.093 56.5003C171.519 56.9251 170.769 57.1499 169.97 57.1499ZM168.396 53.2776H171.044C171.044 52.3782 170.619 51.8536 169.82 51.8536C169.12 51.8536 168.521 52.3532 168.396 53.2776ZM173.69 57V50.8542H174.902L175.014 51.6912H175.051C175.576 51.154 176.163 50.7043 176.938 50.7043C177.837 50.7043 178.349 51.1166 178.636 51.8036C179.224 51.179 179.823 50.7043 180.61 50.7043C181.909 50.7043 182.509 51.6037 182.509 53.1527V57H181.022V53.34C181.022 52.3407 180.735 51.9785 180.098 51.9785C179.723 51.9785 179.298 52.2158 178.836 52.7279V57H177.362V53.34C177.362 52.3407 177.063 51.9785 176.438 51.9785C176.063 51.9785 175.638 52.2158 175.176 52.7279V57H173.69ZM184.242 59.4108V50.8542H185.453L185.566 51.5038H185.603C186.128 51.0666 186.777 50.7043 187.452 50.7043C188.976 50.7043 189.863 51.941 189.863 53.8397C189.863 55.9382 188.614 57.1499 187.252 57.1499C186.702 57.1499 186.165 56.9001 185.678 56.4754L185.728 57.4997V59.4108H184.242ZM186.927 55.9257C187.727 55.9257 188.351 55.2262 188.351 53.8522C188.351 52.6405 187.952 51.9285 187.04 51.9285C186.603 51.9285 186.19 52.1409 185.728 52.603V55.4386C186.153 55.8008 186.578 55.9257 186.927 55.9257ZM193.928 57.1499C192.229 57.1499 190.905 55.9757 190.905 53.9271C190.905 51.9285 192.304 50.7043 193.74 50.7043C195.402 50.7043 196.301 51.9035 196.301 53.6273C196.301 53.9271 196.276 54.152 196.226 54.3768H192.354C192.504 55.4011 193.153 56.0007 194.128 56.0007C194.652 56.0007 195.127 55.8508 195.552 55.576L196.051 56.5003C195.477 56.9251 194.727 57.1499 193.928 57.1499ZM192.354 53.2776H195.002C195.002 52.3782 194.577 51.8536 193.778 51.8536C193.078 51.8536 192.479 52.3532 192.354 53.2776ZM197.648 57V50.8542H198.86L198.972 51.6787H199.009C199.559 51.154 200.184 50.7043 201.021 50.7043C202.345 50.7043 202.919 51.6037 202.919 53.1527V57H201.445V53.34C201.445 52.3407 201.158 51.9785 200.508 51.9785C199.971 51.9785 199.622 52.2283 199.134 52.7279V57H197.648ZM204.65 57V48.1811H206.136V50.4545L206.074 51.6287C206.574 51.154 207.186 50.7043 208.023 50.7043C209.347 50.7043 209.921 51.6037 209.921 53.1527V57H208.447V53.34C208.447 52.3407 208.16 51.9785 207.51 51.9785C206.973 51.9785 206.624 52.2283 206.136 52.7279V57H204.65ZM214.163 57.1499C212.627 57.1499 211.228 55.9757 211.228 53.9396C211.228 51.891 212.627 50.7043 214.163 50.7043C215.687 50.7043 217.086 51.891 217.086 53.9396C217.086 55.9757 215.687 57.1499 214.163 57.1499ZM214.163 55.9507C215.05 55.9507 215.575 55.1513 215.575 53.9396C215.575 52.7155 215.05 51.916 214.163 51.916C213.276 51.916 212.752 52.7155 212.752 53.9396C212.752 55.1513 213.276 55.9507 214.163 55.9507ZM223.145 57.1499C221.608 57.1499 220.622 55.9632 220.622 53.9396C220.622 51.9285 221.871 50.7043 223.22 50.7043C223.907 50.7043 224.344 50.9667 224.819 51.3789L224.756 50.3921V48.1811H226.23V57H225.031L224.919 56.338H224.869C224.419 56.7876 223.794 57.1499 223.145 57.1499ZM223.507 55.9257C223.969 55.9257 224.369 55.7259 224.756 55.2512V52.4282C224.344 52.0534 223.944 51.9285 223.532 51.9285C222.77 51.9285 222.133 52.653 222.133 53.9146C222.133 55.2387 222.633 55.9257 223.507 55.9257ZM230.67 57.1499C228.971 57.1499 227.647 55.9757 227.647 53.9271C227.647 51.9285 229.046 50.7043 230.483 50.7043C232.144 50.7043 233.043 51.9035 233.043 53.6273C233.043 53.9271 233.018 54.152 232.968 54.3768H229.096C229.246 55.4011 229.896 56.0007 230.87 56.0007C231.395 56.0007 231.869 55.8508 232.294 55.576L232.794 56.5003C232.219 56.9251 231.469 57.1499 230.67 57.1499ZM229.096 53.2776H231.744C231.744 52.3782 231.32 51.8536 230.52 51.8536C229.821 51.8536 229.221 52.3532 229.096 53.2776ZM238.315 57.1499C237.278 57.1499 236.891 56.4754 236.891 55.3886V48.1811H238.377V55.4636C238.377 55.8258 238.54 55.9507 238.69 55.9507C238.765 55.9507 238.815 55.9507 238.914 55.9257L239.089 57.0125C238.914 57.0999 238.665 57.1499 238.315 57.1499ZM242.917 57.1499C241.219 57.1499 239.895 55.9757 239.895 53.9271C239.895 51.9285 241.294 50.7043 242.73 50.7043C244.391 50.7043 245.291 51.9035 245.291 53.6273C245.291 53.9271 245.266 54.152 245.216 54.3768H241.344C241.493 55.4011 242.143 56.0007 243.117 56.0007C243.642 56.0007 244.117 55.8508 244.541 55.576L245.041 56.5003C244.466 56.9251 243.717 57.1499 242.917 57.1499ZM241.344 53.2776H243.992C243.992 52.3782 243.567 51.8536 242.768 51.8536C242.068 51.8536 241.468 52.3532 241.344 53.2776ZM247.99 57.1499C246.916 57.1499 246.166 56.4254 246.166 55.3511C246.166 54.0021 247.241 53.3275 249.764 53.0527C249.739 52.4282 249.489 51.9035 248.665 51.9035C248.065 51.9035 247.49 52.1533 246.941 52.4781L246.416 51.5038C247.091 51.0791 247.965 50.7043 248.939 50.7043C250.463 50.7043 251.238 51.6537 251.238 53.365V57H250.039L249.914 56.3255H249.864C249.314 56.8001 248.715 57.1499 247.99 57.1499ZM248.44 55.9757C248.939 55.9757 249.314 55.7758 249.764 55.3511V54.052C248.09 54.2519 247.59 54.6266 247.59 55.2512C247.59 55.7758 247.94 55.9757 248.44 55.9757ZM255.093 57.1499C253.557 57.1499 252.57 55.9632 252.57 53.9396C252.57 51.9285 253.819 50.7043 255.168 50.7043C255.855 50.7043 256.292 50.9667 256.767 51.3789L256.704 50.3921V48.1811H258.178V57H256.979L256.867 56.338H256.817C256.367 56.7876 255.743 57.1499 255.093 57.1499ZM255.455 55.9257C255.917 55.9257 256.317 55.7259 256.704 55.2512V52.4282C256.292 52.0534 255.892 51.9285 255.48 51.9285C254.718 51.9285 254.081 52.653 254.081 53.9146C254.081 55.2387 254.581 55.9257 255.455 55.9257ZM261.719 57.1499C260.869 57.1499 259.995 56.8251 259.395 56.2505L260.045 55.4136C260.582 55.8508 261.144 56.0382 261.769 56.0382C262.418 56.0382 262.731 55.7384 262.731 55.3262C262.731 54.814 262.131 54.6141 261.444 54.3643C260.557 54.0395 259.733 53.5274 259.733 52.5531C259.733 51.4788 260.607 50.7043 261.981 50.7043C262.818 50.7043 263.53 51.0166 264.03 51.4538L263.393 52.2908C262.955 51.966 262.506 51.8161 262.019 51.8161C261.407 51.8161 261.132 52.1159 261.132 52.4781C261.132 52.9278 261.569 53.1027 262.343 53.365C263.293 53.6898 264.13 54.1769 264.13 55.2387C264.13 56.3005 263.28 57.1499 261.719 57.1499Z" fill="#26292C"></path>
      <path d="M59.737 78.3281V73.3357H61.3172C62.4241 73.3357 63.2561 73.7251 63.2561 74.8854C63.2561 75.9999 62.4241 76.5037 61.3477 76.5037H60.6454V78.3281H59.737ZM60.6454 75.7785H61.279C62.0119 75.7785 62.3554 75.4884 62.3554 74.8854C62.3554 74.2747 61.9737 74.0609 61.2485 74.0609H60.6454V75.7785ZM64.3263 78.3281V73.3357H67.3416V74.0991H65.2347V75.351H67.021V76.1144H65.2347V77.5648H67.4179V78.3281H64.3263ZM68.5801 78.3281V73.3357H70.2671C71.3129 73.3357 72.1145 73.7022 72.1145 74.8243C72.1145 75.58 71.7251 76.0457 71.1297 76.2518L72.3129 78.3281H71.2977L70.229 76.3892H69.4885V78.3281H68.5801ZM69.4885 75.664H70.1755C70.8549 75.664 71.2213 75.3815 71.2213 74.8243C71.2213 74.2594 70.8549 74.0609 70.1755 74.0609H69.4885V75.664ZM73.2513 78.3281V73.3357H74.1597V78.3281H73.2513ZM73.2666 73.0762L72.9307 72.6334L74.4422 71.5953L74.8315 72.1831L73.2666 73.0762ZM77.506 78.4197C76.2007 78.4197 75.2999 77.4274 75.2999 75.809C75.2999 74.1983 76.2007 73.2441 77.506 73.2441C78.8114 73.2441 79.7121 74.1983 79.7121 75.809C79.7121 77.4274 78.8114 78.4197 77.506 78.4197ZM77.506 77.6335C78.277 77.6335 78.7808 76.9235 78.7808 75.809C78.7808 74.7022 78.277 74.038 77.506 74.038C76.7274 74.038 76.2312 74.7022 76.2312 75.809C76.2312 76.9235 76.7274 77.6335 77.506 77.6335ZM80.8495 78.3281V73.3357H82.1853C83.7121 73.3357 84.6281 74.1525 84.6281 75.809C84.6281 77.4732 83.7121 78.3281 82.2311 78.3281H80.8495ZM81.7579 77.5953H82.1243C83.1166 77.5953 83.6892 77.038 83.6892 75.809C83.6892 74.5877 83.1166 74.0762 82.1243 74.0762H81.7579V77.5953ZM87.7133 78.4197C86.4079 78.4197 85.5072 77.4274 85.5072 75.809C85.5072 74.1983 86.4079 73.2441 87.7133 73.2441C89.0186 73.2441 89.9194 74.1983 89.9194 75.809C89.9194 77.4274 89.0186 78.4197 87.7133 78.4197ZM87.7133 77.6335C88.4843 77.6335 88.9881 76.9235 88.9881 75.809C88.9881 74.7022 88.4843 74.038 87.7133 74.038C86.9347 74.038 86.4385 74.7022 86.4385 75.809C86.4385 76.9235 86.9347 77.6335 87.7133 77.6335ZM92.7237 78.3281V73.3357H94.3039C95.4108 73.3357 96.2428 73.7251 96.2428 74.8854C96.2428 75.9999 95.4108 76.5037 94.3344 76.5037H93.6321V78.3281H92.7237ZM93.6321 75.7785H94.2657C94.9985 75.7785 95.342 75.4884 95.342 74.8854C95.342 74.2747 94.9604 74.0609 94.2352 74.0609H93.6321V75.7785ZM97.313 78.3281V73.3357H100.328V74.0991H98.2214V75.351H100.008V76.1144H98.2214V77.5648H100.405V78.3281H97.313ZM101.567 78.3281V73.3357H103.254C104.3 73.3357 105.101 73.7022 105.101 74.8243C105.101 75.58 104.712 76.0457 104.116 76.2518L105.3 78.3281H104.284L103.216 76.3892H102.475V78.3281H101.567ZM102.475 75.664H103.162C103.842 75.664 104.208 75.3815 104.208 74.8243C104.208 74.2594 103.842 74.0609 103.162 74.0609H102.475V75.664ZM107.592 78.4197C106.905 78.4197 106.263 78.1678 105.79 77.6869L106.279 77.0915C106.637 77.435 107.134 77.6335 107.615 77.6335C108.164 77.6335 108.47 77.3816 108.47 76.9999C108.47 76.6029 108.149 76.4732 107.699 76.2823L107.019 75.9846C106.523 75.7785 106.012 75.3892 106.012 74.664C106.012 73.8625 106.714 73.2441 107.691 73.2441C108.294 73.2441 108.851 73.4884 109.241 73.8625L108.752 74.4579C108.439 74.1907 108.073 74.038 107.691 74.038C107.225 74.038 106.928 74.2518 106.928 74.6106C106.928 74.9922 107.302 75.1296 107.714 75.3052L108.386 75.58C108.981 75.8319 109.393 76.206 109.393 76.9312C109.393 77.7403 108.721 78.4197 107.592 78.4197ZM112.386 78.4197C111.081 78.4197 110.18 77.4274 110.18 75.809C110.18 74.1983 111.081 73.2441 112.386 73.2441C113.692 73.2441 114.592 74.1983 114.592 75.809C114.592 77.4274 113.692 78.4197 112.386 78.4197ZM112.386 77.6335C113.157 77.6335 113.661 76.9235 113.661 75.809C113.661 74.7022 113.157 74.038 112.386 74.038C111.608 74.038 111.111 74.7022 111.111 75.809C111.111 76.9235 111.608 77.6335 112.386 77.6335ZM115.73 78.3281V73.3357H116.699L118.195 76.0838C118.378 76.4197 118.546 76.8167 118.707 77.2136H118.737C118.684 76.6793 118.623 76.0686 118.623 75.519V73.3357H119.47V78.3281H118.501L117.004 75.58C116.821 75.2441 116.653 74.8472 116.493 74.4502H116.462C116.516 74.9693 116.577 75.5877 116.577 76.1449V78.3281H115.73ZM121.909 75.6869L121.741 76.2823H122.992L122.825 75.6869C122.664 75.1602 122.519 74.5877 122.374 74.0457H122.344C122.214 74.5953 122.069 75.1602 121.909 75.6869ZM120.229 78.3281L121.847 73.3357H122.916L124.534 78.3281H123.573L123.191 76.9922H121.534L121.153 78.3281H120.229ZM125.288 78.3281V73.3357H126.197V77.5648H128.258V78.3281H125.288ZM129.266 78.3281V73.3357H130.175V78.3281H129.266ZM131.246 78.3281V77.7861L133.635 74.0991H131.468V73.3357H134.758V73.8854L132.361 77.5648H134.781V78.3281H131.246ZM136.836 75.6869L136.668 76.2823H137.92L137.752 75.6869C137.592 75.1602 137.447 74.5877 137.302 74.0457H137.271C137.142 74.5953 136.997 75.1602 136.836 75.6869ZM135.157 78.3281L136.775 73.3357H137.844L139.462 78.3281H138.5L138.119 76.9922H136.462L136.081 78.3281H135.157ZM140.216 78.3281V73.3357H141.552C143.079 73.3357 143.995 74.1525 143.995 75.809C143.995 77.4732 143.079 78.3281 141.598 78.3281H140.216ZM141.125 77.5953H141.491C142.483 77.5953 143.056 77.038 143.056 75.809C143.056 74.5877 142.483 74.0762 141.491 74.0762H141.125V77.5953ZM147.08 78.4197C145.775 78.4197 144.874 77.4274 144.874 75.809C144.874 74.1983 145.775 73.2441 147.08 73.2441C148.385 73.2441 149.286 74.1983 149.286 75.809C149.286 77.4274 148.385 78.4197 147.08 78.4197ZM147.08 77.6335C147.851 77.6335 148.355 76.9235 148.355 75.809C148.355 74.7022 147.851 74.038 147.08 74.038C146.301 74.038 145.805 74.7022 145.805 75.809C145.805 76.9235 146.301 77.6335 147.08 77.6335Z" fill="#747678"></path>
      <g clip-path="url(#clip1_9533_33665)">
        <rect x="48" y="90.6543" width="322" height="0.693965" fill="#E5E5E5"></rect>
      </g>
      <path d="M83.2859 124.924H85.0902V123.255C85.0902 122.958 85.1173 122.461 85.1353 122.155H85.0992C84.9549 122.425 84.7925 122.678 84.6301 122.967L83.2859 124.924ZM85.0902 127.107V125.52H82.501V125.023L84.9639 121.352H85.7939V124.924H86.5788V125.52H85.7939V127.107H85.0902ZM89.0784 127.216C87.9236 127.216 87.229 126.142 87.229 124.212C87.229 122.281 87.9236 121.243 89.0784 121.243C90.2241 121.243 90.9188 122.281 90.9188 124.212C90.9188 126.142 90.2241 127.216 89.0784 127.216ZM89.0784 126.611C89.746 126.611 90.1971 125.899 90.1971 124.212C90.1971 122.524 89.746 121.848 89.0784 121.848C88.4108 121.848 87.9597 122.524 87.9597 124.212C87.9597 125.899 88.4108 126.611 89.0784 126.611Z" fill="#747678"></path>
      <g clip-path="url(#clip2_9533_33665)">
        <rect x="94.0922" y="124.76" width="259.059" height="0.693965" fill="#E5E5E5"></rect>
      </g>
      <path d="M84.4768 153.095C83.5566 153.095 82.9702 152.707 82.5822 152.283L82.9611 151.795C83.304 152.156 83.755 152.472 84.4316 152.472C85.1263 152.472 85.6225 152.066 85.6225 151.426C85.6225 150.74 85.1534 150.28 83.7821 150.28V149.712C85 149.712 85.415 149.242 85.415 148.638C85.415 148.088 85.0361 147.736 84.4226 147.736C83.9445 147.736 83.5385 147.979 83.1957 148.313L82.7987 147.844C83.2408 147.429 83.7731 147.122 84.4497 147.122C85.4511 147.122 86.1728 147.655 86.1728 148.584C86.1728 149.278 85.7578 149.721 85.1353 149.955V149.991C85.83 150.154 86.3803 150.659 86.3803 151.453C86.3803 152.472 85.5323 153.095 84.4768 153.095ZM89.0784 153.095C87.9236 153.095 87.229 152.021 87.229 150.09C87.229 148.16 87.9236 147.122 89.0784 147.122C90.2241 147.122 90.9188 148.16 90.9188 150.09C90.9188 152.021 90.2241 153.095 89.0784 153.095ZM89.0784 152.49C89.746 152.49 90.1971 151.777 90.1971 150.09C90.1971 148.403 89.746 147.727 89.0784 147.727C88.4108 147.727 87.9597 148.403 87.9597 150.09C87.9597 151.777 88.4108 152.49 89.0784 152.49Z" fill="#747678"></path>
      <g clip-path="url(#clip3_9533_33665)">
        <rect x="94.0922" y="150.639" width="259.059" height="0.693965" fill="#E5E5E5"></rect>
      </g>
      <path d="M82.7085 178.865V178.405C84.4226 176.727 85.415 175.663 85.415 174.733C85.415 174.075 85.0541 173.615 84.3234 173.615C83.8452 173.615 83.4303 173.921 83.1055 174.3L82.6815 173.894C83.1596 173.353 83.6738 173.001 84.4136 173.001C85.4781 173.001 86.1457 173.678 86.1457 174.688C86.1457 175.807 85.1353 176.844 83.737 178.27C84.0527 178.243 84.4046 178.225 84.7023 178.225H86.4254V178.865H82.7085ZM89.0784 178.973C87.9236 178.973 87.229 177.9 87.229 175.969C87.229 174.039 87.9236 173.001 89.0784 173.001C90.2241 173.001 90.9188 174.039 90.9188 175.969C90.9188 177.9 90.2241 178.973 89.0784 178.973ZM89.0784 178.369C89.746 178.369 90.1971 177.656 90.1971 175.969C90.1971 174.282 89.746 173.606 89.0784 173.606C88.4108 173.606 87.9597 174.282 87.9597 175.969C87.9597 177.656 88.4108 178.369 89.0784 178.369Z" fill="#747678"></path>
      <g clip-path="url(#clip4_9533_33665)">
        <rect x="94.0922" y="176.518" width="259.059" height="0.693965" fill="#E5E5E5"></rect>
      </g>
      <path d="M83.0604 204.746V204.124H84.3775V199.902H83.322V199.414C83.8543 199.324 84.2332 199.18 84.5489 198.99H85.1263V204.124H86.3081V204.746H83.0604ZM89.0784 204.854C87.9236 204.854 87.229 203.781 87.229 201.85C87.229 199.92 87.9236 198.882 89.0784 198.882C90.2241 198.882 90.9188 199.92 90.9188 201.85C90.9188 203.781 90.2241 204.854 89.0784 204.854ZM89.0784 204.25C89.746 204.25 90.1971 203.537 90.1971 201.85C90.1971 200.163 89.746 199.487 89.0784 199.487C88.4108 199.487 87.9597 200.163 87.9597 201.85C87.9597 203.537 88.4108 204.25 89.0784 204.25Z" fill="#747678"></path>
      <g clip-path="url(#clip5_9533_33665)">
        <rect x="94.0922" y="202.398" width="259.059" height="0.693965" fill="#E5E5E5"></rect>
      </g>
      <path d="M89.0784 230.733C87.9236 230.733 87.229 229.66 87.229 227.729C87.229 225.798 87.9236 224.761 89.0784 224.761C90.2241 224.761 90.9188 225.798 90.9188 227.729C90.9188 229.66 90.2241 230.733 89.0784 230.733ZM89.0784 230.129C89.746 230.129 90.1971 229.416 90.1971 227.729C90.1971 226.042 89.746 225.365 89.0784 225.365C88.4108 225.365 87.9597 226.042 87.9597 227.729C87.9597 229.416 88.4108 230.129 89.0784 230.129Z" fill="#747678"></path>
      <g clip-path="url(#clip6_9533_33665)">
        <rect x="94.0922" y="228.277" width="259.059" height="0.693965" fill="#E5E5E5"></rect>
      </g>
      <path d="M116.022 126.483C115.093 126.483 114.48 126.131 114.074 125.671L114.579 124.995C114.922 125.338 115.364 125.617 115.932 125.617C116.546 125.617 116.979 125.301 116.979 124.769C116.979 124.183 116.6 123.804 115.301 123.804V123.028C116.419 123.028 116.78 122.649 116.78 122.126C116.78 121.657 116.474 121.377 115.95 121.377C115.508 121.377 115.156 121.585 114.805 121.909L114.254 121.251C114.75 120.818 115.301 120.529 115.995 120.529C117.096 120.529 117.854 121.079 117.854 122.045C117.854 122.685 117.484 123.118 116.861 123.362V123.398C117.538 123.578 118.052 124.065 118.052 124.823C118.052 125.87 117.132 126.483 116.022 126.483ZM119.809 122.415C119.809 123.082 120.142 123.425 120.693 123.425C121.026 123.425 121.423 123.226 121.712 122.757C121.604 121.756 121.189 121.341 120.648 121.341C120.178 121.341 119.809 121.72 119.809 122.415ZM120.458 126.483C119.763 126.483 119.258 126.186 118.915 125.834L119.484 125.184C119.7 125.428 120.052 125.617 120.404 125.617C121.117 125.617 121.694 125.085 121.739 123.524C121.405 123.939 120.909 124.192 120.494 124.192C119.511 124.192 118.825 123.614 118.825 122.415C118.825 121.26 119.646 120.529 120.639 120.529C121.757 120.529 122.722 121.395 122.722 123.335C122.722 125.554 121.64 126.483 120.458 126.483Z" fill="#26292C"></path>
      <path d="M108.082 133.15C108.082 132.383 108.703 131.762 109.47 131.762H127.513C128.279 131.762 128.901 132.383 128.901 133.15V147.723H108.082V133.15Z" fill="#779288"></path>
      <rect x="108.082" y="148.416" width="20.819" height="33.3103" fill="#D0D7D3"></rect>
      <rect x="108.082" y="182.422" width="20.819" height="47.1897" fill="#B5B4F7"></rect>
      <path d="M114.588 239.108C113.876 239.108 113.343 238.793 113.018 238.152L113.524 237.809C113.776 238.251 114.11 238.441 114.543 238.441C115.193 238.441 115.508 238.08 115.508 237.169V233.082H116.266V237.232C116.266 238.278 115.779 239.108 114.588 239.108ZM119.076 239.108C118.147 239.108 117.732 238.513 117.732 237.394V234.616H118.481V237.295C118.481 238.107 118.733 238.459 119.311 238.459C119.753 238.459 120.069 238.233 120.475 237.719V234.616H121.223V239H120.61L120.547 238.314H120.52C120.114 238.793 119.681 239.108 119.076 239.108ZM123.487 239.108C122.928 239.108 122.702 238.747 122.702 238.116V232.577H123.451V238.17C123.451 238.405 123.55 238.486 123.668 238.486C123.713 238.486 123.749 238.486 123.821 238.468L123.92 239.027C123.812 239.081 123.677 239.108 123.487 239.108Z" fill="#747678"></path>
      <path d="M159.626 132.729C158.697 132.729 158.083 132.378 157.677 131.917L158.182 131.241C158.525 131.584 158.967 131.863 159.536 131.863C160.149 131.863 160.582 131.548 160.582 131.015C160.582 130.429 160.203 130.05 158.904 130.05V129.274C160.023 129.274 160.384 128.895 160.384 128.372C160.384 127.903 160.077 127.623 159.554 127.623C159.112 127.623 158.76 127.831 158.408 128.155L157.858 127.497C158.354 127.064 158.904 126.775 159.599 126.775C160.699 126.775 161.457 127.325 161.457 128.291C161.457 128.931 161.087 129.364 160.465 129.608V129.644C161.142 129.824 161.656 130.312 161.656 131.069C161.656 132.116 160.736 132.729 159.626 132.729ZM163.529 132.621C163.638 130.6 164.053 129.337 165.198 127.786H162.492V126.883H166.353V127.533C164.982 129.22 164.711 130.384 164.612 132.621H163.529Z" fill="#26292C"></path>
      <path d="M151.685 139.396C151.685 138.629 152.307 138.008 153.073 138.008H171.116C171.883 138.008 172.504 138.629 172.504 139.396V147.723H151.685V139.396Z" fill="#779288"></path>
      <rect x="151.685" y="148.418" width="20.819" height="20.819" fill="#D0D7D3"></rect>
      <rect x="151.685" y="169.93" width="20.819" height="59.681" fill="#B5B4F7"></rect>
      <path d="M156.821 235.698L156.541 236.591H158.31L158.03 235.698C157.813 235.04 157.624 234.39 157.435 233.704H157.398C157.218 234.39 157.029 235.04 156.821 235.698ZM155.008 239L157.001 233.082H157.868L159.861 239H159.058L158.499 237.205H156.343L155.775 239H155.008ZM162.107 241.021C161.034 241.021 160.294 240.597 160.294 239.839C160.294 239.469 160.537 239.117 160.934 238.847V238.811C160.718 238.675 160.546 238.441 160.546 238.098C160.546 237.728 160.799 237.439 161.025 237.286V237.25C160.736 237.015 160.456 236.591 160.456 236.068C160.456 235.112 161.214 234.507 162.107 234.507C162.351 234.507 162.567 234.552 162.73 234.616H164.254V235.193H163.361C163.569 235.391 163.713 235.716 163.713 236.086C163.713 237.024 163 237.611 162.107 237.611C161.891 237.611 161.656 237.557 161.458 237.457C161.295 237.593 161.178 237.737 161.178 237.981C161.178 238.251 161.358 238.45 161.945 238.45H162.793C163.812 238.45 164.327 238.774 164.327 239.496C164.327 240.317 163.469 241.021 162.107 241.021ZM162.107 237.105C162.612 237.105 163.036 236.709 163.036 236.068C163.036 235.436 162.621 235.049 162.107 235.049C161.593 235.049 161.178 235.427 161.178 236.068C161.178 236.709 161.602 237.105 162.107 237.105ZM162.215 240.498C163.045 240.498 163.596 240.065 163.596 239.613C163.596 239.207 163.289 239.072 162.712 239.072H161.963C161.791 239.072 161.584 239.054 161.395 239C161.079 239.226 160.943 239.487 160.943 239.74C160.943 240.209 161.422 240.498 162.215 240.498ZM166.764 239.108C165.691 239.108 164.734 238.269 164.734 236.817C164.734 235.346 165.691 234.507 166.764 234.507C167.838 234.507 168.803 235.346 168.803 236.817C168.803 238.269 167.838 239.108 166.764 239.108ZM166.764 238.486C167.522 238.486 168.027 237.818 168.027 236.817C168.027 235.806 167.522 235.13 166.764 235.13C166.015 235.13 165.51 235.806 165.51 236.817C165.51 237.818 166.015 238.486 166.764 238.486Z" fill="#747678"></path>
      <path d="M203.229 126.483C202.3 126.483 201.687 126.131 201.281 125.671L201.786 124.995C202.129 125.338 202.571 125.617 203.139 125.617C203.753 125.617 204.186 125.301 204.186 124.769C204.186 124.183 203.807 123.804 202.508 123.804V123.028C203.626 123.028 203.987 122.649 203.987 122.126C203.987 121.657 203.68 121.377 203.157 121.377C202.715 121.377 202.363 121.585 202.011 121.909L201.461 121.251C201.957 120.818 202.508 120.529 203.202 120.529C204.303 120.529 205.061 121.079 205.061 122.045C205.061 122.685 204.691 123.118 204.068 123.362V123.398C204.745 123.578 205.259 124.065 205.259 124.823C205.259 125.87 204.339 126.483 203.229 126.483ZM207.015 122.415C207.015 123.082 207.349 123.425 207.9 123.425C208.233 123.425 208.63 123.226 208.919 122.757C208.811 121.756 208.396 121.341 207.854 121.341C207.385 121.341 207.015 121.72 207.015 122.415ZM207.665 126.483C206.97 126.483 206.465 126.186 206.122 125.834L206.691 125.184C206.907 125.428 207.259 125.617 207.611 125.617C208.324 125.617 208.901 125.085 208.946 123.524C208.612 123.939 208.116 124.192 207.701 124.192C206.718 124.192 206.032 123.614 206.032 122.415C206.032 121.26 206.853 120.529 207.845 120.529C208.964 120.529 209.929 121.395 209.929 123.335C209.929 125.554 208.847 126.483 207.665 126.483Z" fill="#26292C"></path>
      <path d="M195.289 133.15C195.289 132.383 195.91 131.762 196.677 131.762H214.72C215.486 131.762 216.108 132.383 216.108 133.15V147.723H195.289V133.15Z" fill="#779288"></path>
      <rect x="195.289" y="148.416" width="20.819" height="33.3103" fill="#D0D7D3"></rect>
      <rect x="195.289" y="182.422" width="20.819" height="47.1897" fill="#B5B4F7"></rect>
      <path d="M202.02 239.108C201.172 239.108 200.46 238.774 199.945 238.224L200.369 237.728C200.802 238.17 201.407 238.441 202.029 238.441C202.805 238.441 203.265 238.053 203.265 237.484C203.265 236.88 202.832 236.69 202.282 236.447L201.425 236.068C200.875 235.833 200.234 235.418 200.234 234.543C200.234 233.641 201.019 232.974 202.092 232.974C202.814 232.974 203.428 233.271 203.843 233.686L203.428 234.192C203.067 233.849 202.607 233.641 202.092 233.641C201.434 233.641 201.001 233.975 201.001 234.498C201.001 235.067 201.515 235.283 201.975 235.473L202.823 235.842C203.509 236.131 204.041 236.546 204.041 237.421C204.041 238.359 203.265 239.108 202.02 239.108ZM206.894 239.108C205.721 239.108 204.801 238.26 204.801 236.808C204.801 235.382 205.766 234.507 206.767 234.507C207.886 234.507 208.526 235.301 208.526 236.564C208.526 236.727 208.517 236.862 208.49 237.006H205.54C205.603 237.908 206.154 238.504 206.984 238.504C207.408 238.504 207.778 238.387 208.084 238.179L208.346 238.657C207.967 238.928 207.498 239.108 206.894 239.108ZM205.54 236.429H207.859C207.859 235.563 207.453 235.103 206.785 235.103C206.172 235.103 205.631 235.59 205.54 236.429ZM210.893 239.108C209.955 239.108 209.639 238.513 209.639 237.638V235.22H208.99V234.661L209.675 234.616L209.765 233.208H210.388V234.616H211.579V235.22H210.388V237.656C210.388 238.188 210.568 238.495 211.064 238.495C211.227 238.495 211.389 238.468 211.57 238.387L211.723 238.919C211.489 239.027 211.191 239.108 210.893 239.108Z" fill="#747678"></path>
      <path d="M246.833 145.22C245.904 145.22 245.29 144.868 244.884 144.408L245.389 143.731C245.732 144.074 246.174 144.354 246.743 144.354C247.356 144.354 247.789 144.038 247.789 143.505C247.789 142.919 247.41 142.54 246.111 142.54V141.764C247.23 141.764 247.591 141.385 247.591 140.862C247.591 140.393 247.284 140.113 246.761 140.113C246.319 140.113 245.967 140.321 245.615 140.646L245.065 139.987C245.561 139.554 246.111 139.265 246.806 139.265C247.906 139.265 248.664 139.816 248.664 140.781C248.664 141.422 248.294 141.855 247.672 142.098V142.134C248.348 142.315 248.863 142.802 248.863 143.56C248.863 144.606 247.942 145.22 246.833 145.22ZM249.969 145.111V144.245H251.25V140.519H250.186V139.852C250.763 139.744 251.151 139.59 251.521 139.374H252.315V144.245H253.434V145.111H249.969Z" fill="#26292C"></path>
      <path d="M238.892 151.888C238.892 151.121 239.514 150.5 240.28 150.5H258.323C259.09 150.5 259.711 151.121 259.711 151.888V156.746H238.892V151.888Z" fill="#779288"></path>
      <rect x="238.892" y="157.439" width="20.819" height="18.7371" fill="#D0D7D3"></rect>
      <rect x="238.892" y="176.871" width="20.819" height="52.7414" fill="#B5B4F7"></rect>
      <path d="M245.319 239.108C243.831 239.108 242.793 237.917 242.793 236.014C242.793 234.119 243.831 232.974 245.319 232.974C246.808 232.974 247.854 234.128 247.854 236.014C247.854 237.917 246.808 239.108 245.319 239.108ZM245.319 238.441C246.375 238.441 247.069 237.493 247.069 236.014C247.069 234.543 246.375 233.641 245.319 233.641C244.264 233.641 243.578 234.543 243.578 236.014C243.578 237.493 244.264 238.441 245.319 238.441ZM250.336 239.108C249.407 239.108 248.992 238.513 248.992 237.394V234.616H249.74V237.295C249.74 238.107 249.993 238.459 250.57 238.459C251.012 238.459 251.328 238.233 251.734 237.719V234.616H252.483V239H251.869L251.806 238.314H251.779C251.373 238.793 250.94 239.108 250.336 239.108ZM255.342 239.108C254.404 239.108 254.088 238.513 254.088 237.638V235.22H253.439V234.661L254.124 234.616L254.215 233.208H254.837V234.616H256.028V235.22H254.837V237.656C254.837 238.188 255.017 238.495 255.514 238.495C255.676 238.495 255.838 238.468 256.019 238.387L256.172 238.919C255.938 239.027 255.64 239.108 255.342 239.108Z" fill="#747678"></path>
      <path d="M289.489 121.308H290.959V120.045C290.959 119.711 290.996 119.179 291.014 118.845H290.978C290.833 119.143 290.671 119.432 290.508 119.738L289.489 121.308ZM290.959 123.6V122.138H288.433V121.407L290.698 117.862H291.961V121.308H292.674V122.138H291.961V123.6H290.959ZM295.224 123.708C294.033 123.708 293.266 122.643 293.266 120.704C293.266 118.764 294.033 117.754 295.224 117.754C296.424 117.754 297.181 118.773 297.181 120.704C297.181 122.643 296.424 123.708 295.224 123.708ZM295.224 122.869C295.774 122.869 296.162 122.328 296.162 120.704C296.162 119.089 295.774 118.584 295.224 118.584C294.682 118.584 294.285 119.089 294.285 120.704C294.285 122.328 294.682 122.869 295.224 122.869Z" fill="#26292C"></path>
      <path d="M282.496 130.376C282.496 129.61 283.117 128.988 283.884 128.988H301.927C302.693 128.988 303.315 129.61 303.315 130.376V133.152H282.496V130.376Z" fill="#779288"></path>
      <rect x="282.496" y="133.846" width="20.819" height="39.556" fill="#D0D7D3"></rect>
      <rect x="282.496" y="174.096" width="20.819" height="55.5172" fill="#B5B4F7"></rect>
      <path d="M286.264 239V233.082H287.076L289.187 236.772C289.412 237.169 289.62 237.611 289.827 238.044H289.863C289.818 237.43 289.764 236.781 289.764 236.167V233.082H290.477V239H289.665L287.554 235.31C287.328 234.913 287.112 234.471 286.913 234.038H286.877C286.922 234.634 286.976 235.274 286.976 235.888V239H286.264ZM293.729 239.108C292.655 239.108 291.699 238.269 291.699 236.817C291.699 235.346 292.655 234.507 293.729 234.507C294.803 234.507 295.768 235.346 295.768 236.817C295.768 238.269 294.803 239.108 293.729 239.108ZM293.729 238.486C294.487 238.486 294.992 237.818 294.992 236.817C294.992 235.806 294.487 235.13 293.729 235.13C292.98 235.13 292.475 235.806 292.475 236.817C292.475 237.818 292.98 238.486 293.729 238.486ZM297.826 239L296.247 234.616H297.023L297.844 237.096C297.979 237.529 298.114 237.972 298.25 238.396H298.286C298.412 237.972 298.556 237.529 298.692 237.096L299.513 234.616H300.252L298.701 239H297.826Z" fill="#747678"></path>
      <path d="M334.04 129.259C333.11 129.259 332.497 128.907 332.091 128.447L332.596 127.77C332.939 128.113 333.381 128.393 333.949 128.393C334.563 128.393 334.996 128.077 334.996 127.545C334.996 126.958 334.617 126.579 333.318 126.579V125.803C334.437 125.803 334.797 125.424 334.797 124.901C334.797 124.432 334.491 124.152 333.967 124.152C333.525 124.152 333.174 124.36 332.822 124.685L332.271 124.026C332.768 123.593 333.318 123.304 334.013 123.304C335.113 123.304 335.871 123.855 335.871 124.82C335.871 125.461 335.501 125.894 334.879 126.137V126.173C335.555 126.354 336.069 126.841 336.069 127.599C336.069 128.645 335.149 129.259 334.04 129.259ZM338.827 129.259C337.708 129.259 336.878 128.609 336.878 127.68C336.878 126.967 337.366 126.498 337.907 126.209V126.173C337.474 125.858 337.122 125.443 337.122 124.838C337.122 123.9 337.862 123.304 338.863 123.304C339.892 123.304 340.559 123.927 340.559 124.856C340.559 125.424 340.162 125.903 339.783 126.164V126.2C340.316 126.507 340.776 126.931 340.776 127.698C340.776 128.582 340 129.259 338.827 129.259ZM339.206 125.903C339.504 125.605 339.675 125.28 339.675 124.919C339.675 124.423 339.368 124.062 338.845 124.062C338.412 124.062 338.069 124.342 338.069 124.838C338.069 125.397 338.575 125.65 339.206 125.903ZM338.854 128.501C339.395 128.501 339.783 128.185 339.783 127.662C339.783 127.048 339.188 126.823 338.412 126.507C338.069 126.769 337.817 127.139 337.817 127.572C337.817 128.131 338.268 128.501 338.854 128.501Z" fill="#26292C"></path>
      <path d="M326.099 135.927C326.099 135.16 326.721 134.539 327.487 134.539H345.53C346.297 134.539 346.918 135.16 346.918 135.927V138.009H326.099V135.927Z" fill="#779288"></path>
      <rect x="326.099" y="138.703" width="20.819" height="24.2888" fill="#D0D7D3"></rect>
      <rect x="326.099" y="163.686" width="20.819" height="65.9267" fill="#B5B4F7"></rect>
      <path d="M330.246 239V233.082H331.726C333.548 233.082 334.522 234.137 334.522 236.014C334.522 237.899 333.548 239 331.762 239H330.246ZM331.004 238.378H331.671C333.052 238.378 333.737 237.511 333.737 236.014C333.737 234.525 333.052 233.704 331.671 233.704H331.004V238.378ZM337.501 239.108C336.328 239.108 335.408 238.26 335.408 236.808C335.408 235.382 336.374 234.507 337.375 234.507C338.494 234.507 339.134 235.301 339.134 236.564C339.134 236.727 339.125 236.862 339.098 237.006H336.148C336.211 237.908 336.761 238.504 337.591 238.504C338.015 238.504 338.385 238.387 338.692 238.179L338.954 238.657C338.575 238.928 338.106 239.108 337.501 239.108ZM336.148 236.429H338.467C338.467 235.563 338.061 235.103 337.393 235.103C336.78 235.103 336.238 235.59 336.148 236.429ZM341.941 239.108C340.777 239.108 339.884 238.269 339.884 236.817C339.884 235.346 340.867 234.507 341.995 234.507C342.572 234.507 342.969 234.733 343.276 235.021L342.906 235.491C342.662 235.265 342.383 235.13 342.031 235.13C341.237 235.13 340.66 235.806 340.66 236.817C340.66 237.818 341.201 238.486 342.004 238.486C342.41 238.486 342.771 238.305 343.032 238.071L343.357 238.549C342.96 238.91 342.464 239.108 341.941 239.108Z" fill="#747678"></path>
      <g clip-path="url(#clip7_9533_33665)">
        <rect x="48" y="254.43" width="322" height="0.693965" fill="#E5E5E5"></rect>
      </g>
      <circle cx="61.8793" cy="272.227" r="2.77586" fill="#779288"></circle>
      <path d="M71.0188 274.227V268.308H72.7059C74.032 268.308 74.9342 268.75 74.9342 270.05C74.9342 271.304 74.0411 271.881 72.742 271.881H71.7767V274.227H71.0188ZM71.7767 271.267H72.6517C73.6802 271.267 74.1764 270.889 74.1764 270.05C74.1764 269.202 73.6531 268.922 72.6157 268.922H71.7767V271.267ZM77.6133 274.335C76.4405 274.335 75.5203 273.487 75.5203 272.034C75.5203 270.609 76.4856 269.734 77.487 269.734C78.6057 269.734 79.2462 270.528 79.2462 271.791C79.2462 271.953 79.2372 272.088 79.2101 272.233H76.2601C76.3232 273.135 76.8736 273.73 77.7035 273.73C78.1275 273.73 78.4974 273.613 78.8042 273.406L79.0658 273.884C78.6869 274.154 78.2178 274.335 77.6133 274.335ZM76.2601 271.655H78.5786C78.5786 270.789 78.1727 270.329 77.5051 270.329C76.8916 270.329 76.3503 270.816 76.2601 271.655ZM80.3206 274.227V269.842H80.9341L80.9972 270.636H81.0243C81.331 270.086 81.7821 269.734 82.2693 269.734C82.4678 269.734 82.6031 269.761 82.7384 269.824L82.576 270.465C82.4497 270.428 82.3505 270.41 82.1791 270.41C81.8092 270.41 81.3671 270.672 81.0694 271.412V274.227H80.3206ZM84.8665 274.335C83.7659 274.335 83.0532 273.505 83.0532 272.043C83.0532 270.618 83.9553 269.734 84.9567 269.734C85.4619 269.734 85.7957 269.923 86.1837 270.239L86.1476 269.49V267.803H86.8964V274.227H86.2829L86.2197 273.712H86.1927C85.8499 274.046 85.3807 274.335 84.8665 274.335ZM85.0289 273.703C85.4349 273.703 85.7867 273.505 86.1476 273.108V270.816C85.7777 270.483 85.4439 270.365 85.083 270.365C84.3884 270.365 83.829 271.033 83.829 272.034C83.829 273.081 84.2621 273.703 85.0289 273.703ZM88.3731 274.227V269.842H89.1219V274.227H88.3731ZM88.752 268.94C88.4633 268.94 88.2558 268.75 88.2558 268.453C88.2558 268.164 88.4633 267.966 88.752 267.966C89.0407 267.966 89.2482 268.164 89.2482 268.453C89.2482 268.75 89.0407 268.94 88.752 268.94ZM92.0996 274.335C90.999 274.335 90.2863 273.505 90.2863 272.043C90.2863 270.618 91.1884 269.734 92.1898 269.734C92.695 269.734 93.0288 269.923 93.4168 270.239L93.3807 269.49V267.803H94.1295V274.227H93.516L93.4528 273.712H93.4258C93.083 274.046 92.6138 274.335 92.0996 274.335ZM92.262 273.703C92.668 273.703 93.0198 273.505 93.3807 273.108V270.816C93.0108 270.483 92.677 270.365 92.3161 270.365C91.6215 270.365 91.0621 271.033 91.0621 272.034C91.0621 273.081 91.4952 273.703 92.262 273.703ZM97.3112 274.335C96.2377 274.335 95.2814 273.496 95.2814 272.043C95.2814 270.573 96.2377 269.734 97.3112 269.734C98.3848 269.734 99.3501 270.573 99.3501 272.043C99.3501 273.496 98.3848 274.335 97.3112 274.335ZM97.3112 273.712C98.0691 273.712 98.5743 273.045 98.5743 272.043C98.5743 271.033 98.0691 270.356 97.3112 270.356C96.5625 270.356 96.0572 271.033 96.0572 272.043C96.0572 273.045 96.5625 273.712 97.3112 273.712Z" fill="#747678"></path>
      <circle cx="111.31" cy="272.227" r="2.77586" fill="#9C99F5"></circle>
      <path d="M122.777 274.335C121.217 274.335 120.107 273.198 120.107 271.267C120.107 269.364 121.253 268.2 122.823 268.2C123.644 268.2 124.185 268.561 124.528 268.931L124.113 269.4C123.815 269.093 123.436 268.868 122.841 268.868C121.65 268.868 120.892 269.779 120.892 271.249C120.892 272.738 121.587 273.667 122.85 273.667C123.274 273.667 123.68 273.541 123.914 273.324V271.782H122.66V271.159H124.609V273.649C124.221 274.046 123.571 274.335 122.777 274.335ZM126.956 274.335C126.225 274.335 125.675 273.884 125.675 273.09C125.675 272.116 126.487 271.646 128.363 271.439C128.354 270.889 128.174 270.356 127.461 270.356C126.956 270.356 126.496 270.582 126.153 270.807L125.865 270.302C126.27 270.032 126.884 269.734 127.588 269.734C128.652 269.734 129.112 270.447 129.112 271.529V274.227H128.499L128.427 273.703H128.4C127.985 274.055 127.506 274.335 126.956 274.335ZM127.164 273.721C127.588 273.721 127.939 273.532 128.363 273.162V271.971C126.884 272.143 126.406 272.476 126.406 273.045C126.406 273.532 126.74 273.721 127.164 273.721ZM130.492 274.227V269.842H131.105L131.168 270.474H131.195C131.61 270.059 132.061 269.734 132.666 269.734C133.595 269.734 134.01 270.329 134.01 271.448V274.227H133.261V271.547C133.261 270.726 133.009 270.383 132.431 270.383C131.989 270.383 131.674 270.609 131.24 271.051V274.227H130.492ZM135.425 274.227V267.803H136.174V269.553L136.147 270.456C136.553 270.059 136.995 269.734 137.6 269.734C138.529 269.734 138.944 270.329 138.944 271.448V274.227H138.195V271.547C138.195 270.726 137.942 270.383 137.365 270.383C136.923 270.383 136.607 270.609 136.174 271.051V274.227H135.425ZM142.038 274.335C140.964 274.335 140.008 273.496 140.008 272.043C140.008 270.573 140.964 269.734 142.038 269.734C143.111 269.734 144.077 270.573 144.077 272.043C144.077 273.496 143.111 274.335 142.038 274.335ZM142.038 273.712C142.795 273.712 143.301 273.045 143.301 272.043C143.301 271.033 142.795 270.356 142.038 270.356C141.289 270.356 140.784 271.033 140.784 272.043C140.784 273.045 141.289 273.712 142.038 273.712Z" fill="#747678"></path>
      <circle cx="155.741" cy="272.227" r="2.77586" fill="#D0D7D3"></circle>
      <path d="M164.881 274.227V268.308H168.291V268.949H165.639V270.798H167.876V271.439H165.639V273.586H168.381V274.227H164.881ZM169.566 274.227V269.842H170.18L170.243 270.474H170.27C170.658 270.059 171.109 269.734 171.632 269.734C172.309 269.734 172.67 270.05 172.85 270.564C173.301 270.077 173.761 269.734 174.293 269.734C175.196 269.734 175.629 270.329 175.629 271.448V274.227H174.88V271.547C174.88 270.726 174.618 270.383 174.068 270.383C173.725 270.383 173.373 270.6 172.967 271.051V274.227H172.219V271.547C172.219 270.726 171.966 270.383 171.407 270.383C171.082 270.383 170.721 270.6 170.315 271.051V274.227H169.566ZM179.862 274.335C179.132 274.335 178.581 273.884 178.581 273.09C178.581 272.116 179.393 271.646 181.27 271.439C181.261 270.889 181.08 270.356 180.368 270.356C179.862 270.356 179.402 270.582 179.06 270.807L178.771 270.302C179.177 270.032 179.79 269.734 180.494 269.734C181.558 269.734 182.019 270.447 182.019 271.529V274.227H181.405L181.333 273.703H181.306C180.891 274.055 180.413 274.335 179.862 274.335ZM180.07 273.721C180.494 273.721 180.846 273.532 181.27 273.162V271.971C179.79 272.143 179.312 272.476 179.312 273.045C179.312 273.532 179.646 273.721 180.07 273.721ZM185.338 274.335C184.932 274.335 184.481 274.127 184.093 273.775H184.066L183.993 274.227H183.398V267.803H184.147V269.553L184.12 270.338C184.526 269.995 185.013 269.734 185.5 269.734C186.628 269.734 187.241 270.609 187.241 271.962C187.241 273.46 186.339 274.335 185.338 274.335ZM185.211 273.703C185.933 273.703 186.465 273.054 186.465 271.971C186.465 271.006 186.132 270.365 185.311 270.365C184.941 270.365 184.562 270.564 184.147 270.961V273.252C184.526 273.586 184.923 273.703 185.211 273.703ZM190.162 274.335C188.989 274.335 188.069 273.487 188.069 272.034C188.069 270.609 189.034 269.734 190.035 269.734C191.154 269.734 191.794 270.528 191.794 271.791C191.794 271.953 191.785 272.088 191.758 272.233H188.808C188.872 273.135 189.422 273.73 190.252 273.73C190.676 273.73 191.046 273.613 191.352 273.406L191.614 273.884C191.235 274.154 190.766 274.335 190.162 274.335ZM188.808 271.655H191.127C191.127 270.789 190.721 270.329 190.053 270.329C189.44 270.329 188.899 270.816 188.808 271.655ZM192.869 274.227V269.842H193.482L193.546 270.636H193.573C193.879 270.086 194.33 269.734 194.818 269.734C195.016 269.734 195.151 269.761 195.287 269.824L195.124 270.465C194.998 270.428 194.899 270.41 194.727 270.41C194.357 270.41 193.915 270.672 193.618 271.412V274.227H192.869ZM197.386 274.335C196.447 274.335 196.132 273.739 196.132 272.864V270.447H195.482V269.887L196.168 269.842L196.258 268.435H196.88V269.842H198.071V270.447H196.88V272.882C196.88 273.415 197.061 273.721 197.557 273.721C197.719 273.721 197.882 273.694 198.062 273.613L198.216 274.145C197.981 274.254 197.683 274.335 197.386 274.335ZM200.644 274.335C199.571 274.335 198.614 273.496 198.614 272.043C198.614 270.573 199.571 269.734 200.644 269.734C201.718 269.734 202.683 270.573 202.683 272.043C202.683 273.496 201.718 274.335 200.644 274.335ZM200.644 273.712C201.402 273.712 201.907 273.045 201.907 272.043C201.907 271.033 201.402 270.356 200.644 270.356C199.895 270.356 199.39 271.033 199.39 272.043C199.39 273.045 199.895 273.712 200.644 273.712Z" fill="#747678"></path>
    </g>
  </g>
  <g filter="url(#filter1_d_9533_33665)">
    <g clip-path="url(#clip8_9533_33665)">
      <rect x="275" y="107" width="246" height="252" rx="8" fill="white"></rect>
      <g filter="url(#filter2_ddd_9533_33665)">
        <rect x="274.689" y="106.988" width="246.311" height="251.831" rx="2.75979" fill="white"></rect>
      </g>
      <path d="M286.829 126.314C286.829 122.503 289.918 119.414 293.729 119.414C297.539 119.414 300.628 122.503 300.628 126.314C300.628 130.124 297.539 133.213 293.729 133.213C289.918 133.213 286.829 130.124 286.829 126.314ZM293.729 120.424C290.476 120.424 287.839 123.061 287.839 126.314C287.839 129.566 290.476 132.203 293.729 132.203C296.982 132.203 299.618 129.566 299.618 126.314C299.618 123.061 296.982 120.424 293.729 120.424ZM293.23 130.453C293.23 130.739 293.462 130.971 293.747 130.971C294.033 130.971 294.265 130.739 294.265 130.453V129.708C295.25 129.501 296.04 128.779 296.04 127.778C296.04 127.492 295.982 127.226 295.843 126.978C295.709 126.737 295.516 126.546 295.299 126.377C294.896 126.063 294.531 125.947 294.127 125.82C294.067 125.801 294.007 125.782 293.945 125.762C293.831 125.724 293.713 125.695 293.615 125.67L293.563 125.657C293.448 125.627 293.353 125.601 293.262 125.565C293.157 125.525 293.029 125.458 292.917 125.395C292.864 125.364 292.818 125.337 292.786 125.317L292.758 125.3C292.623 125.192 292.554 125.105 292.516 125.031C292.478 124.956 292.452 124.861 292.452 124.712C292.452 124.306 292.893 123.79 293.736 123.757C293.743 123.757 293.75 123.757 293.757 123.757C293.775 123.756 293.793 123.756 293.811 123.756C294.29 123.779 294.582 123.903 294.76 124.02C294.939 124.138 295.032 124.269 295.083 124.352C295.235 124.594 295.554 124.668 295.796 124.517C296.039 124.366 296.113 124.047 295.962 123.804C295.864 123.647 295.676 123.384 295.328 123.155C295.055 122.975 294.701 122.829 294.246 122.76L294.246 122.174C294.246 121.888 294.015 121.656 293.729 121.656C293.443 121.656 293.211 121.888 293.211 122.174L293.211 122.786C292.232 122.997 291.417 123.707 291.417 124.712C291.417 124.988 291.467 125.253 291.596 125.505C291.725 125.754 291.914 125.954 292.14 126.131L292.158 126.145L292.178 126.157L292.178 126.158L292.18 126.159L292.184 126.161L292.197 126.17C292.209 126.177 292.225 126.187 292.244 126.199C292.284 126.223 292.34 126.257 292.405 126.294C292.532 126.366 292.712 126.462 292.888 126.53C293.04 126.589 293.185 126.628 293.306 126.659L293.371 126.676C293.468 126.7 293.546 126.72 293.624 126.746C293.696 126.769 293.761 126.79 293.821 126.809C294.228 126.939 294.414 126.999 294.663 127.193C294.819 127.315 294.897 127.407 294.94 127.483C294.979 127.553 295.005 127.639 295.005 127.778C295.005 128.201 294.582 128.708 293.732 128.733C293.718 128.734 293.675 128.734 293.647 128.734C293.168 128.711 292.875 128.587 292.698 128.47C292.518 128.352 292.426 128.221 292.374 128.138C292.223 127.896 291.904 127.822 291.661 127.973C291.419 128.124 291.345 128.443 291.496 128.686C291.594 128.843 291.781 129.106 292.13 129.335C292.407 129.517 292.766 129.665 293.23 129.733V130.453ZM292.458 125.722L292.178 126.157C292.178 126.157 292.178 126.157 292.458 125.722Z" fill="#21232C"></path>
      <path d="M306.078 130.312V122.19H308.822C310.524 122.19 311.828 122.787 311.828 124.612C311.828 125.842 311.194 126.599 310.226 126.935L312.151 130.312H310.499L308.76 127.158H307.556V130.312H306.078ZM307.556 125.978H308.673C309.779 125.978 310.375 125.519 310.375 124.612C310.375 123.693 309.779 123.37 308.673 123.37H307.556V125.978ZM315.802 130.462C314.113 130.462 312.796 129.294 312.796 127.257C312.796 125.27 314.187 124.053 315.615 124.053C317.267 124.053 318.161 125.246 318.161 126.959C318.161 127.257 318.136 127.481 318.087 127.705H314.237C314.386 128.723 315.032 129.319 316 129.319C316.522 129.319 316.994 129.17 317.416 128.897L317.913 129.816C317.342 130.238 316.596 130.462 315.802 130.462ZM314.237 126.612H316.87C316.87 125.717 316.447 125.196 315.653 125.196C314.957 125.196 314.361 125.693 314.237 126.612ZM320.916 130.462C319.885 130.462 319.5 129.791 319.5 128.71V121.545H320.978V128.785C320.978 129.145 321.139 129.269 321.288 129.269C321.363 129.269 321.413 129.269 321.512 129.244L321.686 130.325C321.512 130.412 321.264 130.462 320.916 130.462ZM324.374 130.462C323.306 130.462 322.561 129.741 322.561 128.673C322.561 127.332 323.629 126.661 326.138 126.388C326.113 125.767 325.864 125.246 325.045 125.246C324.449 125.246 323.877 125.494 323.331 125.817L322.809 124.848C323.48 124.426 324.349 124.053 325.318 124.053C326.833 124.053 327.603 124.997 327.603 126.699V130.312H326.411L326.287 129.642H326.237C325.691 130.114 325.094 130.462 324.374 130.462ZM324.821 129.294C325.318 129.294 325.691 129.095 326.138 128.673V127.382C324.473 127.58 323.977 127.953 323.977 128.574C323.977 129.095 324.324 129.294 324.821 129.294ZM331.267 130.462C329.838 130.462 329.317 129.567 329.317 128.239V125.37H328.448V124.277L329.391 124.202L329.565 122.302H330.782V124.202H332.335V125.37H330.782V128.239C330.782 128.946 331.068 129.294 331.639 129.294C331.85 129.294 332.061 129.257 332.273 129.17L332.533 130.201C332.211 130.35 331.763 130.462 331.267 130.462ZM335.932 130.462C334.404 130.462 333.013 129.294 333.013 127.27C333.013 125.233 334.404 124.053 335.932 124.053C337.447 124.053 338.838 125.233 338.838 127.27C338.838 129.294 337.447 130.462 335.932 130.462ZM335.932 129.269C336.814 129.269 337.335 128.474 337.335 127.27C337.335 126.053 336.814 125.258 335.932 125.258C335.05 125.258 334.529 126.053 334.529 127.27C334.529 128.474 335.05 129.269 335.932 129.269ZM335.41 123.196L334.678 122.476L337.037 120.303L337.882 121.271L335.41 123.196ZM340.227 130.312V124.202H341.431L341.543 125.295H341.58C342.028 124.5 342.673 124.053 343.319 124.053C343.63 124.053 343.828 124.103 344.015 124.177L343.717 125.432C343.53 125.382 343.381 125.357 343.133 125.357C342.649 125.357 342.065 125.68 341.705 126.612V130.312H340.227ZM344.896 130.312V124.202H346.374V130.312H344.896ZM345.641 123.159C345.12 123.159 344.759 122.824 344.759 122.327C344.759 121.83 345.12 121.495 345.641 121.495C346.163 121.495 346.523 121.83 346.523 122.327C346.523 122.824 346.163 123.159 345.641 123.159ZM350.68 130.462C349.152 130.462 347.761 129.294 347.761 127.27C347.761 125.233 349.152 124.053 350.68 124.053C352.195 124.053 353.586 125.233 353.586 127.27C353.586 129.294 352.195 130.462 350.68 130.462ZM350.68 129.269C351.561 129.269 352.083 128.474 352.083 127.27C352.083 126.053 351.561 125.258 350.68 125.258C349.798 125.258 349.276 126.053 349.276 127.27C349.276 128.474 349.798 129.269 350.68 129.269ZM359.609 130.462C358.082 130.462 357.101 129.282 357.101 127.27C357.101 125.27 358.342 124.053 359.684 124.053C360.367 124.053 360.801 124.314 361.273 124.724L361.211 123.743V121.545H362.677V130.312H361.484L361.373 129.654H361.323C360.876 130.101 360.255 130.462 359.609 130.462ZM359.969 129.244C360.429 129.244 360.826 129.046 361.211 128.574V125.767C360.801 125.395 360.404 125.27 359.994 125.27C359.237 125.27 358.603 125.991 358.603 127.245C358.603 128.561 359.1 129.244 359.969 129.244ZM367.091 130.462C365.402 130.462 364.085 129.294 364.085 127.257C364.085 125.27 365.476 124.053 366.904 124.053C368.556 124.053 369.45 125.246 369.45 126.959C369.45 127.257 369.426 127.481 369.376 127.705H365.526C365.675 128.723 366.321 129.319 367.289 129.319C367.811 129.319 368.283 129.17 368.705 128.897L369.202 129.816C368.631 130.238 367.886 130.462 367.091 130.462ZM365.526 126.612H368.159C368.159 125.717 367.737 125.196 366.942 125.196C366.246 125.196 365.65 125.693 365.526 126.612ZM375.424 130.462C373.896 130.462 372.915 129.282 372.915 127.27C372.915 125.27 374.157 124.053 375.499 124.053C376.182 124.053 376.616 124.314 377.088 124.724L377.026 123.743V121.545H378.492V130.312H377.299L377.188 129.654H377.138C376.691 130.101 376.07 130.462 375.424 130.462ZM375.784 129.244C376.244 129.244 376.641 129.046 377.026 128.574V125.767C376.616 125.395 376.219 125.27 375.809 125.27C375.051 125.27 374.418 125.991 374.418 127.245C374.418 128.561 374.915 129.244 375.784 129.244ZM382.906 130.462C381.217 130.462 379.9 129.294 379.9 127.257C379.9 125.27 381.291 124.053 382.719 124.053C384.371 124.053 385.265 125.246 385.265 126.959C385.265 127.257 385.24 127.481 385.191 127.705H381.341C381.49 128.723 382.136 129.319 383.104 129.319C383.626 129.319 384.098 129.17 384.52 128.897L385.017 129.816C384.446 130.238 383.7 130.462 382.906 130.462ZM381.341 126.612H383.974C383.974 125.717 383.551 125.196 382.757 125.196C382.061 125.196 381.465 125.693 381.341 126.612ZM388.318 130.462C387.474 130.462 386.604 130.139 386.008 129.567L386.654 128.735C387.188 129.17 387.747 129.356 388.368 129.356C389.013 129.356 389.324 129.058 389.324 128.648C389.324 128.139 388.728 127.94 388.045 127.692C387.163 127.369 386.343 126.86 386.343 125.891C386.343 124.823 387.213 124.053 388.579 124.053C389.411 124.053 390.119 124.364 390.616 124.798L389.982 125.631C389.547 125.308 389.1 125.159 388.616 125.159C388.008 125.159 387.734 125.457 387.734 125.817C387.734 126.264 388.169 126.438 388.939 126.699C389.883 127.021 390.715 127.506 390.715 128.561C390.715 129.617 389.87 130.462 388.318 130.462ZM394.573 130.462C392.884 130.462 391.567 129.294 391.567 127.257C391.567 125.27 392.958 124.053 394.386 124.053C396.038 124.053 396.932 125.246 396.932 126.959C396.932 127.257 396.908 127.481 396.858 127.705H393.008C393.157 128.723 393.803 129.319 394.771 129.319C395.293 129.319 395.765 129.17 396.187 128.897L396.684 129.816C396.113 130.238 395.368 130.462 394.573 130.462ZM393.008 126.612H395.641C395.641 125.717 395.219 125.196 394.424 125.196C393.728 125.196 393.132 125.693 393.008 126.612ZM398.271 130.312V124.202H399.476L399.588 125.034H399.625C400.147 124.5 400.73 124.053 401.5 124.053C402.394 124.053 402.904 124.463 403.189 125.146C403.773 124.525 404.369 124.053 405.151 124.053C406.443 124.053 407.039 124.947 407.039 126.487V130.312H405.561V126.674C405.561 125.68 405.276 125.32 404.642 125.32C404.27 125.32 403.847 125.556 403.388 126.065V130.312H401.922V126.674C401.922 125.68 401.624 125.32 401.003 125.32C400.631 125.32 400.209 125.556 399.749 126.065V130.312H398.271ZM408.762 132.709V124.202H409.967L410.078 124.848H410.116C410.637 124.413 411.283 124.053 411.954 124.053C413.469 124.053 414.351 125.283 414.351 127.17C414.351 129.257 413.109 130.462 411.755 130.462C411.209 130.462 410.675 130.213 410.19 129.791L410.24 130.809V132.709H408.762ZM411.432 129.244C412.227 129.244 412.848 128.549 412.848 127.183C412.848 125.978 412.45 125.27 411.544 125.27C411.109 125.27 410.699 125.481 410.24 125.941V128.76C410.662 129.12 411.084 129.244 411.432 129.244ZM418.392 130.462C416.703 130.462 415.387 129.294 415.387 127.257C415.387 125.27 416.778 124.053 418.206 124.053C419.858 124.053 420.752 125.246 420.752 126.959C420.752 127.257 420.727 127.481 420.677 127.705H416.827C416.976 128.723 417.622 129.319 418.591 129.319C419.112 129.319 419.584 129.17 420.007 128.897L420.503 129.816C419.932 130.238 419.187 130.462 418.392 130.462ZM416.827 126.612H419.46C419.46 125.717 419.038 125.196 418.243 125.196C417.548 125.196 416.951 125.693 416.827 126.612ZM422.091 130.312V124.202H423.295L423.407 125.022H423.444C423.991 124.5 424.612 124.053 425.444 124.053C426.76 124.053 427.331 124.947 427.331 126.487V130.312H425.866V126.674C425.866 125.68 425.58 125.32 424.935 125.32C424.401 125.32 424.053 125.568 423.568 126.065V130.312H422.091ZM429.052 130.312V121.545H430.53V123.805L430.468 124.972C430.965 124.5 431.573 124.053 432.405 124.053C433.722 124.053 434.293 124.947 434.293 126.487V130.312H432.827V126.674C432.827 125.68 432.542 125.32 431.896 125.32C431.362 125.32 431.014 125.568 430.53 126.065V130.312H429.052ZM438.51 130.462C436.983 130.462 435.592 129.294 435.592 127.27C435.592 125.233 436.983 124.053 438.51 124.053C440.025 124.053 441.416 125.233 441.416 127.27C441.416 129.294 440.025 130.462 438.51 130.462ZM438.51 129.269C439.392 129.269 439.914 128.474 439.914 127.27C439.914 126.053 439.392 125.258 438.51 125.258C437.629 125.258 437.107 126.053 437.107 127.27C437.107 128.474 437.629 129.269 438.51 129.269ZM447.44 130.462C445.912 130.462 444.931 129.282 444.931 127.27C444.931 125.27 446.173 124.053 447.514 124.053C448.197 124.053 448.632 124.314 449.104 124.724L449.042 123.743V121.545H450.507V130.312H449.315L449.203 129.654H449.154C448.707 130.101 448.086 130.462 447.44 130.462ZM447.8 129.244C448.26 129.244 448.657 129.046 449.042 128.574V125.767C448.632 125.395 448.235 125.27 447.825 125.27C447.067 125.27 446.434 125.991 446.434 127.245C446.434 128.561 446.931 129.244 447.8 129.244ZM454.922 130.462C453.233 130.462 451.916 129.294 451.916 127.257C451.916 125.27 453.307 124.053 454.735 124.053C456.387 124.053 457.281 125.246 457.281 126.959C457.281 127.257 457.256 127.481 457.207 127.705H453.357C453.506 128.723 454.152 129.319 455.12 129.319C455.642 129.319 456.114 129.17 456.536 128.897L457.033 129.816C456.461 130.238 455.716 130.462 454.922 130.462ZM453.357 126.612H455.99C455.99 125.717 455.567 125.196 454.772 125.196C454.077 125.196 453.481 125.693 453.357 126.612ZM461.106 130.312V124.202H462.311L462.423 125.022H462.46C463.006 124.5 463.627 124.053 464.459 124.053C465.776 124.053 466.347 124.947 466.347 126.487V130.312H464.882V126.674C464.882 125.68 464.596 125.32 463.95 125.32C463.416 125.32 463.069 125.568 462.584 126.065V130.312H461.106ZM470.676 130.462C468.987 130.462 467.67 129.294 467.67 127.257C467.67 125.27 469.061 124.053 470.489 124.053C472.141 124.053 473.035 125.246 473.035 126.959C473.035 127.257 473.011 127.481 472.961 127.705H469.111C469.26 128.723 469.906 129.319 470.874 129.319C471.396 129.319 471.868 129.17 472.29 128.897L472.787 129.816C472.216 130.238 471.471 130.462 470.676 130.462ZM469.111 126.612H471.744C471.744 125.717 471.322 125.196 470.527 125.196C469.831 125.196 469.235 125.693 469.111 126.612ZM476.389 133.007C474.936 133.007 473.843 132.486 473.843 131.418C473.843 130.896 474.166 130.462 474.725 130.114V130.064C474.414 129.865 474.166 129.543 474.166 129.046C474.166 128.574 474.489 128.164 474.849 127.916V127.866C474.427 127.555 474.042 126.972 474.042 126.251C474.042 124.848 475.184 124.053 476.464 124.053C476.799 124.053 477.122 124.115 477.37 124.202H479.556V125.295H478.463C478.649 125.519 478.798 125.891 478.798 126.301C478.798 127.655 477.755 128.375 476.464 128.375C476.203 128.375 475.917 128.325 475.644 128.226C475.47 128.375 475.358 128.524 475.358 128.797C475.358 129.133 475.607 129.331 476.339 129.331H477.42C478.873 129.331 479.655 129.791 479.655 130.847C479.655 132.051 478.389 133.007 476.389 133.007ZM476.464 127.456C477.035 127.456 477.494 127.021 477.494 126.251C477.494 125.494 477.047 125.072 476.464 125.072C475.88 125.072 475.42 125.494 475.42 126.251C475.42 127.021 475.892 127.456 476.464 127.456ZM476.613 132.051C477.581 132.051 478.24 131.604 478.24 131.082C478.24 130.623 477.867 130.486 477.184 130.486H476.364C476.029 130.486 475.768 130.462 475.532 130.399C475.209 130.648 475.073 130.909 475.073 131.194C475.073 131.741 475.669 132.051 476.613 132.051ZM483.056 130.462C481.529 130.462 480.138 129.294 480.138 127.27C480.138 125.233 481.529 124.053 483.056 124.053C484.572 124.053 485.962 125.233 485.962 127.27C485.962 129.294 484.572 130.462 483.056 130.462ZM483.056 129.269C483.938 129.269 484.46 128.474 484.46 127.27C484.46 126.053 483.938 125.258 483.056 125.258C482.175 125.258 481.653 126.053 481.653 127.27C481.653 128.474 482.175 129.269 483.056 129.269ZM482.535 123.196L481.802 122.476L484.162 120.303L485.006 121.271L482.535 123.196ZM489.91 130.462C488.245 130.462 486.954 129.294 486.954 127.27C486.954 125.233 488.394 124.053 490.034 124.053C490.804 124.053 491.375 124.339 491.822 124.736L491.114 125.655C490.804 125.382 490.493 125.258 490.108 125.258C489.14 125.258 488.469 126.053 488.469 127.27C488.469 128.474 489.127 129.269 490.059 129.269C490.543 129.269 490.965 129.071 491.313 128.785L491.909 129.716C491.325 130.226 490.605 130.462 489.91 130.462ZM493.088 130.312V124.202H494.566V130.312H493.088ZM493.833 123.159C493.311 123.159 492.951 122.824 492.951 122.327C492.951 121.83 493.311 121.495 493.833 121.495C494.355 121.495 494.715 121.83 494.715 122.327C494.715 122.824 494.355 123.159 493.833 123.159ZM498.871 130.462C497.344 130.462 495.953 129.294 495.953 127.27C495.953 125.233 497.344 124.053 498.871 124.053C500.386 124.053 501.777 125.233 501.777 127.27C501.777 129.294 500.386 130.462 498.871 130.462ZM498.871 129.269C499.753 129.269 500.275 128.474 500.275 127.27C500.275 126.053 499.753 125.258 498.871 125.258C497.99 125.258 497.468 126.053 497.468 127.27C497.468 128.474 497.99 129.269 498.871 129.269Z" fill="#26292C"></path>
      <g filter="url(#filter3_i_9533_33665)">
        <path d="M275 331H521.311V355.838C521.311 357.362 520.075 358.598 518.551 358.598H277.76C276.236 358.598 275 357.362 275 355.838V331Z" fill="white"></path>
      </g>
      <circle cx="289.178" cy="343.852" r="3.44973" fill="#014722"></circle>
      <path d="M298.509 346.44C296.957 346.44 295.854 345.31 295.854 343.39C295.854 341.498 296.993 340.341 298.554 340.341C299.37 340.341 299.908 340.699 300.249 341.067L299.836 341.533C299.54 341.228 299.164 341.004 298.572 341.004C297.388 341.004 296.634 341.91 296.634 343.372C296.634 344.852 297.325 345.776 298.581 345.776C299.002 345.776 299.406 345.65 299.639 345.435V343.901H298.392V343.282H300.33V345.758C299.944 346.153 299.298 346.44 298.509 346.44ZM302.663 346.44C301.937 346.44 301.39 345.991 301.39 345.202C301.39 344.233 302.197 343.767 304.063 343.561C304.054 343.013 303.874 342.484 303.166 342.484C302.663 342.484 302.206 342.708 301.865 342.933L301.578 342.43C301.982 342.161 302.592 341.865 303.291 341.865C304.35 341.865 304.807 342.574 304.807 343.65V346.332H304.197L304.125 345.812H304.098C303.686 346.162 303.21 346.44 302.663 346.44ZM302.87 345.83C303.291 345.83 303.641 345.641 304.063 345.274V344.09C302.592 344.26 302.116 344.592 302.116 345.157C302.116 345.641 302.448 345.83 302.87 345.83ZM306.178 346.332V341.973H306.788L306.851 342.601H306.878C307.291 342.188 307.739 341.865 308.34 341.865C309.264 341.865 309.676 342.457 309.676 343.569V346.332H308.932V343.668C308.932 342.852 308.681 342.511 308.107 342.511C307.667 342.511 307.353 342.735 306.923 343.175V346.332H306.178ZM311.084 346.332V339.946H311.828V341.686L311.801 342.583C312.205 342.188 312.644 341.865 313.245 341.865C314.169 341.865 314.582 342.457 314.582 343.569V346.332H313.837V343.668C313.837 342.852 313.586 342.511 313.012 342.511C312.572 342.511 312.259 342.735 311.828 343.175V346.332H311.084ZM317.658 346.44C316.59 346.44 315.639 345.606 315.639 344.161C315.639 342.699 316.59 341.865 317.658 341.865C318.725 341.865 319.685 342.699 319.685 344.161C319.685 345.606 318.725 346.44 317.658 346.44ZM317.658 345.821C318.411 345.821 318.913 345.157 318.913 344.161C318.913 343.157 318.411 342.484 317.658 342.484C316.913 342.484 316.411 343.157 316.411 344.161C316.411 345.157 316.913 345.821 317.658 345.821Z" fill="#21232C"></path>
      <circle cx="330.737" cy="343.852" r="3.44973" fill="#3DBC62"></circle>
      <path d="M337.754 346.332V340.448H341.144V341.085H338.507V342.924H340.731V343.561H338.507V345.695H341.234V346.332H337.754ZM342.412 346.332V341.973H343.022L343.085 342.601H343.111C343.497 342.188 343.946 341.865 344.466 341.865C345.138 341.865 345.497 342.179 345.677 342.69C346.125 342.206 346.583 341.865 347.112 341.865C348.009 341.865 348.439 342.457 348.439 343.569V346.332H347.695V343.668C347.695 342.852 347.435 342.511 346.887 342.511C346.547 342.511 346.197 342.726 345.793 343.175V346.332H345.049V343.668C345.049 342.852 344.798 342.511 344.242 342.511C343.919 342.511 343.56 342.726 343.156 343.175V346.332H342.412ZM352.648 346.44C351.922 346.44 351.375 345.991 351.375 345.202C351.375 344.233 352.182 343.767 354.048 343.561C354.039 343.013 353.859 342.484 353.151 342.484C352.648 342.484 352.191 342.708 351.85 342.933L351.563 342.43C351.967 342.161 352.577 341.865 353.276 341.865C354.335 341.865 354.792 342.574 354.792 343.65V346.332H354.182L354.11 345.812H354.084C353.671 346.162 353.196 346.44 352.648 346.44ZM352.855 345.83C353.276 345.83 353.626 345.641 354.048 345.274V344.09C352.577 344.26 352.101 344.592 352.101 345.157C352.101 345.641 352.433 345.83 352.855 345.83ZM358.092 346.44C357.688 346.44 357.24 346.233 356.854 345.884H356.827L356.756 346.332H356.164V339.946H356.908V341.686L356.881 342.466C357.285 342.125 357.769 341.865 358.253 341.865C359.375 341.865 359.984 342.735 359.984 344.081C359.984 345.57 359.088 346.44 358.092 346.44ZM357.966 345.812C358.684 345.812 359.213 345.166 359.213 344.09C359.213 343.13 358.881 342.493 358.065 342.493C357.697 342.493 357.321 342.69 356.908 343.085V345.363C357.285 345.695 357.679 345.812 357.966 345.812ZM362.888 346.44C361.722 346.44 360.807 345.597 360.807 344.152C360.807 342.735 361.767 341.865 362.762 341.865C363.875 341.865 364.511 342.655 364.511 343.91C364.511 344.072 364.502 344.206 364.476 344.35H361.543C361.605 345.247 362.152 345.839 362.978 345.839C363.399 345.839 363.767 345.722 364.072 345.516L364.332 345.991C363.955 346.26 363.489 346.44 362.888 346.44ZM361.543 343.776H363.848C363.848 342.915 363.444 342.457 362.78 342.457C362.17 342.457 361.632 342.942 361.543 343.776ZM365.58 346.332V341.973H366.19L366.252 342.762H366.279C366.584 342.215 367.033 341.865 367.517 341.865C367.714 341.865 367.849 341.892 367.983 341.955L367.822 342.592C367.696 342.556 367.598 342.538 367.427 342.538C367.06 342.538 366.62 342.798 366.324 343.534V346.332H365.58ZM370.07 346.44C369.137 346.44 368.823 345.848 368.823 344.978V342.574H368.178V342.018L368.859 341.973L368.949 340.574H369.568V341.973H370.752V342.574H369.568V344.996C369.568 345.525 369.747 345.83 370.241 345.83C370.402 345.83 370.563 345.803 370.743 345.722L370.895 346.251C370.662 346.359 370.366 346.44 370.07 346.44ZM373.31 346.44C372.242 346.44 371.292 345.606 371.292 344.161C371.292 342.699 372.242 341.865 373.31 341.865C374.377 341.865 375.337 342.699 375.337 344.161C375.337 345.606 374.377 346.44 373.31 346.44ZM373.31 345.821C374.063 345.821 374.566 345.157 374.566 344.161C374.566 343.157 374.063 342.484 373.31 342.484C372.565 342.484 372.063 343.157 372.063 344.161C372.063 345.157 372.565 345.821 373.31 345.821Z" fill="#21232C"></path>
      <circle cx="386.296" cy="343.852" r="3.44973" fill="#A2B3AC"></circle>
      <path d="M393.313 346.332V340.448H394.99C396.309 340.448 397.205 340.888 397.205 342.179C397.205 343.426 396.318 344 395.026 344H394.066V346.332H393.313ZM394.066 343.39H394.936C395.959 343.39 396.452 343.013 396.452 342.179C396.452 341.336 395.932 341.058 394.9 341.058H394.066V343.39ZM399.869 346.44C398.703 346.44 397.788 345.597 397.788 344.152C397.788 342.735 398.748 341.865 399.744 341.865C400.856 341.865 401.493 342.655 401.493 343.91C401.493 344.072 401.484 344.206 401.457 344.35H398.524C398.586 345.247 399.134 345.839 399.959 345.839C400.38 345.839 400.748 345.722 401.053 345.516L401.313 345.991C400.936 346.26 400.47 346.44 399.869 346.44ZM398.524 343.776H400.829C400.829 342.915 400.425 342.457 399.761 342.457C399.152 342.457 398.613 342.942 398.524 343.776ZM402.561 346.332V341.973H403.171L403.233 342.762H403.26C403.565 342.215 404.014 341.865 404.498 341.865C404.695 341.865 404.83 341.892 404.964 341.955L404.803 342.592C404.677 342.556 404.579 342.538 404.408 342.538C404.041 342.538 403.601 342.798 403.305 343.534V346.332H402.561ZM407.08 346.44C405.986 346.44 405.277 345.614 405.277 344.161C405.277 342.744 406.174 341.865 407.17 341.865C407.672 341.865 408.004 342.054 408.39 342.368L408.354 341.623V339.946H409.098V346.332H408.488L408.426 345.821H408.399C408.058 346.153 407.592 346.44 407.08 346.44ZM407.242 345.812C407.645 345.812 407.995 345.614 408.354 345.22V342.942C407.986 342.61 407.654 342.493 407.296 342.493C406.605 342.493 406.049 343.157 406.049 344.152C406.049 345.193 406.479 345.812 407.242 345.812ZM410.567 346.332V341.973H411.311V346.332H410.567ZM410.943 341.076C410.656 341.076 410.45 340.888 410.45 340.592C410.45 340.305 410.656 340.107 410.943 340.107C411.23 340.107 411.437 340.305 411.437 340.592C411.437 340.888 411.23 341.076 410.943 341.076ZM414.271 346.44C413.177 346.44 412.469 345.614 412.469 344.161C412.469 342.744 413.366 341.865 414.361 341.865C414.863 341.865 415.195 342.054 415.581 342.368L415.545 341.623V339.946H416.29V346.332H415.68L415.617 345.821H415.59C415.249 346.153 414.783 346.44 414.271 346.44ZM414.433 345.812C414.837 345.812 415.186 345.614 415.545 345.22V342.942C415.177 342.61 414.846 342.493 414.487 342.493C413.796 342.493 413.24 343.157 413.24 344.152C413.24 345.193 413.671 345.812 414.433 345.812ZM419.453 346.44C418.386 346.44 417.435 345.606 417.435 344.161C417.435 342.699 418.386 341.865 419.453 341.865C420.52 341.865 421.48 342.699 421.48 344.161C421.48 345.606 420.52 346.44 419.453 346.44ZM419.453 345.821C420.206 345.821 420.709 345.157 420.709 344.161C420.709 343.157 420.206 342.484 419.453 342.484C418.708 342.484 418.206 343.157 418.206 344.161C418.206 345.157 418.708 345.821 419.453 345.821Z" fill="#21232C"></path>
      <rect x="304" y="149" width="188.311" height="176" rx="3.28617" fill="white"></rect>
      <mask id="path-67-inside-1_9533_33665" fill="white">
        <path d="M462.026 220.215C467.547 235.586 467.339 252.433 461.441 267.663C455.543 282.893 444.351 295.486 429.918 303.13C415.484 310.773 398.778 312.956 382.866 309.276C366.953 305.597 352.901 296.302 343.289 283.098L398.155 243.155L462.026 220.215Z"></path>
      </mask>
      <path d="M462.026 220.215C467.547 235.586 467.339 252.433 461.441 267.663C455.543 282.893 444.351 295.486 429.918 303.13C415.484 310.773 398.778 312.956 382.866 309.276C366.953 305.597 352.901 296.302 343.289 283.098L398.155 243.155L462.026 220.215Z" fill="#85DA95" stroke="white" stroke-width="0.821543" mask="url(#path-67-inside-1_9533_33665)"></path>
      <mask id="path-68-inside-2_9533_33665" fill="white">
        <path d="M343.29 283.1C332.801 268.693 328.399 250.738 331.036 233.112L398.155 243.155L343.29 283.1Z"></path>
      </mask>
      <path d="M343.29 283.1C332.801 268.693 328.399 250.738 331.036 233.112L398.155 243.155L343.29 283.1Z" fill="#A2B3AC" stroke="white" stroke-width="0.821543" mask="url(#path-68-inside-2_9533_33665)"></path>
      <mask id="path-69-inside-3_9533_33665" fill="white">
        <path d="M331.044 233.059C333.292 218.12 340.459 204.358 351.411 193.953C362.364 183.548 376.474 177.095 391.509 175.615C406.543 174.136 421.641 177.715 434.411 185.785C447.181 193.856 456.894 205.956 462.01 220.17L398.155 243.155L331.044 233.059Z"></path>
      </mask>
      <path d="M331.044 233.059C333.292 218.12 340.459 204.358 351.411 193.953C362.364 183.548 376.474 177.095 391.509 175.615C406.543 174.136 421.641 177.715 434.411 185.785C447.181 193.856 456.894 205.956 462.01 220.17L398.155 243.155L331.044 233.059Z" fill="#014722" stroke="white" stroke-width="0.821543" mask="url(#path-69-inside-3_9533_33665)"></path>
      <path d="M432.004 176.418V175.48L434.493 173.04C434.732 172.799 434.93 172.586 435.089 172.399C435.247 172.212 435.366 172.031 435.446 171.856C435.525 171.681 435.565 171.495 435.565 171.296C435.565 171.07 435.513 170.876 435.411 170.715C435.308 170.552 435.167 170.426 434.987 170.337C434.807 170.248 434.603 170.204 434.374 170.204C434.139 170.204 433.932 170.253 433.755 170.351C433.577 170.447 433.44 170.583 433.342 170.761C433.246 170.938 433.198 171.149 433.198 171.394H431.962C431.962 170.939 432.066 170.543 432.274 170.207C432.482 169.871 432.768 169.611 433.132 169.427C433.498 169.242 433.918 169.15 434.392 169.15C434.873 169.15 435.295 169.24 435.659 169.42C436.023 169.599 436.306 169.846 436.507 170.158C436.71 170.471 436.811 170.828 436.811 171.23C436.811 171.498 436.76 171.762 436.657 172.021C436.554 172.28 436.373 172.567 436.114 172.882C435.858 173.197 435.497 173.579 435.033 174.027L433.797 175.284V175.333H436.92V176.418H432.004ZM441.044 169.248V176.418H439.745V170.512H439.703L438.026 171.583V170.393L439.808 169.248H441.044Z" fill="#21232C"></path>
      <path d="M453.934 306.996V306.058L456.423 303.618C456.661 303.377 456.86 303.164 457.018 302.977C457.177 302.79 457.296 302.609 457.375 302.434C457.455 302.259 457.494 302.073 457.494 301.874C457.494 301.648 457.443 301.454 457.34 301.293C457.238 301.13 457.097 301.004 456.917 300.915C456.737 300.826 456.533 300.782 456.304 300.782C456.068 300.782 455.862 300.831 455.684 300.929C455.507 301.025 455.369 301.161 455.271 301.339C455.176 301.516 455.128 301.727 455.128 301.972H453.892C453.892 301.517 453.996 301.122 454.204 300.786C454.411 300.449 454.697 300.189 455.061 300.005C455.428 299.82 455.848 299.728 456.322 299.728C456.802 299.728 457.225 299.818 457.589 299.998C457.953 300.178 458.235 300.424 458.436 300.736C458.639 301.049 458.741 301.406 458.741 301.808C458.741 302.076 458.689 302.34 458.587 302.599C458.484 302.858 458.303 303.145 458.044 303.46C457.787 303.775 457.427 304.157 456.962 304.605L455.726 305.862V305.911H458.849V306.996H453.934ZM462.63 307.094C462.126 307.094 461.678 307.008 461.286 306.835C460.896 306.662 460.588 306.422 460.362 306.114C460.135 305.806 460.015 305.45 460.001 305.046H461.317C461.329 305.24 461.393 305.409 461.51 305.554C461.627 305.696 461.782 305.807 461.976 305.886C462.169 305.966 462.386 306.005 462.627 306.005C462.883 306.005 463.111 305.961 463.309 305.872C463.508 305.781 463.663 305.655 463.775 305.494C463.887 305.333 463.942 305.148 463.94 304.938C463.942 304.721 463.886 304.529 463.772 304.363C463.657 304.198 463.491 304.068 463.274 303.975C463.06 303.881 462.801 303.835 462.497 303.835H461.864V302.834H462.497C462.747 302.834 462.965 302.79 463.152 302.704C463.341 302.618 463.489 302.496 463.597 302.34C463.704 302.181 463.756 301.998 463.754 301.79C463.756 301.587 463.711 301.411 463.618 301.262C463.526 301.11 463.397 300.992 463.229 300.908C463.063 300.824 462.868 300.782 462.644 300.782C462.425 300.782 462.222 300.822 462.035 300.901C461.848 300.98 461.698 301.094 461.583 301.241C461.469 301.385 461.408 301.558 461.401 301.759H460.152C460.161 301.357 460.276 301.005 460.498 300.701C460.722 300.396 461.021 300.158 461.394 299.987C461.768 299.815 462.187 299.728 462.651 299.728C463.13 299.728 463.545 299.818 463.898 299.998C464.252 300.175 464.527 300.414 464.72 300.715C464.914 301.017 465.011 301.349 465.011 301.713C465.013 302.117 464.894 302.455 464.654 302.729C464.416 303.002 464.103 303.18 463.716 303.264V303.32C464.22 303.39 464.606 303.577 464.874 303.88C465.145 304.181 465.279 304.556 465.277 305.004C465.277 305.406 465.163 305.765 464.934 306.082C464.707 306.397 464.395 306.645 463.996 306.825C463.599 307.004 463.144 307.094 462.63 307.094Z" fill="#21232C"></path>
      <path d="M420.758 178.993L423.587 174.455L428.872 174.455" stroke="#21232C" stroke-opacity="0.12" stroke-width="0.821543"></path>
      <path d="M452.312 302.41H446.55L442.869 292.822" stroke="#21232C" stroke-opacity="0.12" stroke-width="0.821543"></path>
      <path d="M317.732 261.734H324.448L332.603 258.437" stroke="#21232C" stroke-opacity="0.12" stroke-width="0.821543"></path>
      <path d="M310.429 265.875L313.478 259.839V259.79H309.939V258.705H314.823V259.815L311.777 265.875H310.429Z" fill="#21232C"></path>
      <path d="M286.358 151.15V146.187H289.356V146.946H287.262V148.191H289.038V148.949H287.262V150.391H289.432V151.15H286.358ZM292.037 151.241C291.354 151.241 290.717 150.991 290.246 150.513L290.732 149.921C291.088 150.262 291.582 150.46 292.06 150.46C292.606 150.46 292.91 150.209 292.91 149.83C292.91 149.435 292.591 149.306 292.143 149.116L291.468 148.82C290.975 148.616 290.466 148.228 290.466 147.507C290.466 146.711 291.164 146.096 292.136 146.096C292.735 146.096 293.289 146.339 293.676 146.711L293.191 147.303C292.88 147.037 292.515 146.885 292.136 146.885C291.673 146.885 291.377 147.098 291.377 147.454C291.377 147.834 291.749 147.97 292.159 148.145L292.826 148.418C293.418 148.669 293.828 149.041 293.828 149.762C293.828 150.566 293.16 151.241 292.037 151.241ZM295.715 151.15V146.946H294.288V146.187H298.045V146.946H296.618V151.15H295.715ZM299.009 151.15V146.187H302.007V146.946H299.912V148.191H301.688V148.949H299.912V150.391H302.083V151.15H299.009ZM304.888 151.15V146.187H305.95L306.8 148.616C306.907 148.934 306.998 149.223 307.089 149.587H307.119C307.21 149.223 307.286 148.934 307.392 148.616L308.242 146.187H309.305V151.15H308.47V148.889C308.47 148.418 308.546 147.735 308.607 147.28H308.576L308.182 148.479L307.377 150.695H306.785L305.996 148.479L305.601 147.28H305.571C305.632 147.735 305.707 148.418 305.707 148.889V151.15H304.888ZM310.696 151.15V146.187H313.694V146.946H311.599V148.191H313.375V148.949H311.599V150.391H313.769V151.15H310.696ZM311.44 145.906L311.052 145.648L311.781 144.806H312.753L313.481 145.648L313.094 145.906L312.282 145.238H312.252L311.44 145.906ZM316.375 151.241C315.691 151.241 315.054 150.991 314.583 150.513L315.069 149.921C315.426 150.262 315.919 150.46 316.397 150.46C316.944 150.46 317.247 150.209 317.247 149.83C317.247 149.435 316.929 149.306 316.481 149.116L315.805 148.82C315.312 148.616 314.803 148.228 314.803 147.507C314.803 146.711 315.502 146.096 316.473 146.096C317.073 146.096 317.627 146.339 318.014 146.711L317.528 147.303C317.217 147.037 316.853 146.885 316.473 146.885C316.01 146.885 315.714 147.098 315.714 147.454C315.714 147.834 316.086 147.97 316.496 148.145L317.164 148.418C317.756 148.669 318.166 149.041 318.166 149.762C318.166 150.566 317.498 151.241 316.375 151.241Z" fill="#747678"></path>
      <rect width="645.79" height="0.344973" transform="translate(274.689 163.16)" fill="#E4E6E9"></rect>
    </g>
  </g>
  <path fill-rule="evenodd" clip-rule="evenodd" d="M464.464 361.251L464.639 361.484L464.639 354.792C464.639 353.312 465.804 352.112 467.242 352.112C468.679 352.112 469.845 353.312 469.845 354.792V353.005C469.845 351.526 471.01 350.326 472.447 350.326C473.885 350.326 475.05 351.526 475.05 353.005L474.982 357.05L475.05 354.792C475.05 353.312 476.215 352.112 477.653 352.112C479.09 352.112 480.255 353.312 480.255 354.792V358.364C480.255 356.884 481.42 355.685 482.858 355.685C484.295 355.685 485.461 356.884 485.461 358.364V362.264C485.461 365.548 485.025 368.818 484.166 371.988C483.402 374.807 480.843 376.764 477.923 376.764L476.042 376.764L471.387 376.777C467.563 376.749 464.145 374.385 462.769 370.817L459.179 361.511C458.796 360.081 459.611 358.621 461 358.249" fill="white"></path>
  <path d="M474.963 358.184L474.949 359.074L475.05 353.005C475.05 351.526 473.885 350.326 472.447 350.326C471.01 350.326 469.845 351.526 469.845 353.005V357.805L469.845 354.792C469.845 353.312 468.679 352.112 467.242 352.112C465.804 352.112 464.639 353.312 464.639 354.792V365.831M464.464 361.251L464.207 360.163C463.824 358.734 462.388 357.877 461 358.249C459.611 358.621 458.796 360.081 459.179 361.511L462.769 370.817C464.145 374.385 467.563 376.749 471.387 376.777L476.042 376.764L477.923 376.764C480.843 376.764 483.402 374.807 484.166 371.988C485.025 368.818 485.461 365.548 485.461 362.264V358.364C485.461 356.884 484.295 355.685 482.858 355.685C481.42 355.685 480.255 356.884 480.255 358.364V359.618V354.792C480.255 353.312 479.09 352.112 477.653 352.112C476.215 352.112 475.05 353.312 475.05 354.792L474.949 358.181" stroke="#192435" stroke-width="2.25" stroke-linecap="round" stroke-linejoin="round"></path>
  <defs>
    <filter id="filter0_d_9533_33665" x="38" y="23" width="341.726" height="273.082" filterUnits="userSpaceOnUse" color-interpolation-filters="sRGB">
      <feFlood flood-opacity="0" result="BackgroundImageFix"></feFlood>
      <feColorMatrix in="SourceAlpha" type="matrix" values="0 0 0 0 0 0 0 0 0 0 0 0 0 0 0 0 0 0 127 0" result="hardAlpha"></feColorMatrix>
      <feOffset></feOffset>
      <feGaussianBlur stdDeviation="5"></feGaussianBlur>
      <feComposite in2="hardAlpha" operator="out"></feComposite>
      <feColorMatrix type="matrix" values="0 0 0 0 0 0 0 0 0 0 0 0 0 0 0 0 0 0 0.25 0"></feColorMatrix>
      <feBlend mode="normal" in2="BackgroundImageFix" result="effect1_dropShadow_9533_33665"></feBlend>
      <feBlend mode="normal" in="SourceGraphic" in2="effect1_dropShadow_9533_33665" result="shape"></feBlend>
    </filter>
    <filter id="filter1_d_9533_33665" x="265" y="97" width="266" height="272" filterUnits="userSpaceOnUse" color-interpolation-filters="sRGB">
      <feFlood flood-opacity="0" result="BackgroundImageFix"></feFlood>
      <feColorMatrix in="SourceAlpha" type="matrix" values="0 0 0 0 0 0 0 0 0 0 0 0 0 0 0 0 0 0 127 0" result="hardAlpha"></feColorMatrix>
      <feOffset></feOffset>
      <feGaussianBlur stdDeviation="5"></feGaussianBlur>
      <feComposite in2="hardAlpha" operator="out"></feComposite>
      <feColorMatrix type="matrix" values="0 0 0 0 0 0 0 0 0 0 0 0 0 0 0 0 0 0 0.25 0"></feColorMatrix>
      <feBlend mode="normal" in2="BackgroundImageFix" result="effect1_dropShadow_9533_33665"></feBlend>
      <feBlend mode="normal" in="SourceGraphic" in2="effect1_dropShadow_9533_33665" result="shape"></feBlend>
    </filter>
    <filter id="filter2_ddd_9533_33665" x="272.62" y="105.608" width="250.451" height="255.97" filterUnits="userSpaceOnUse" color-interpolation-filters="sRGB">
      <feFlood flood-opacity="0" result="BackgroundImageFix"></feFlood>
      <feColorMatrix in="SourceAlpha" type="matrix" values="0 0 0 0 0 0 0 0 0 0 0 0 0 0 0 0 0 0 127 0" result="hardAlpha"></feColorMatrix>
      <feOffset dy="0.689947"></feOffset>
      <feGaussianBlur stdDeviation="1.03492"></feGaussianBlur>
      <feColorMatrix type="matrix" values="0 0 0 0 0 0 0 0 0 0 0 0 0 0 0 0 0 0 0.07 0"></feColorMatrix>
      <feBlend mode="normal" in2="BackgroundImageFix" result="effect1_dropShadow_9533_33665"></feBlend>
      <feColorMatrix in="SourceAlpha" type="matrix" values="0 0 0 0 0 0 0 0 0 0 0 0 0 0 0 0 0 0 127 0" result="hardAlpha"></feColorMatrix>
      <feOffset dy="0.689947"></feOffset>
      <feGaussianBlur stdDeviation="0.689947"></feGaussianBlur>
      <feColorMatrix type="matrix" values="0 0 0 0 0 0 0 0 0 0 0 0 0 0 0 0 0 0 0.06 0"></feColorMatrix>
      <feBlend mode="normal" in2="effect1_dropShadow_9533_33665" result="effect2_dropShadow_9533_33665"></feBlend>
      <feColorMatrix in="SourceAlpha" type="matrix" values="0 0 0 0 0 0 0 0 0 0 0 0 0 0 0 0 0 0 127 0" result="hardAlpha"></feColorMatrix>
      <feOffset></feOffset>
      <feGaussianBlur stdDeviation="0.344973"></feGaussianBlur>
      <feColorMatrix type="matrix" values="0 0 0 0 0 0 0 0 0 0 0 0 0 0 0 0 0 0 0.05 0"></feColorMatrix>
      <feBlend mode="normal" in2="effect2_dropShadow_9533_33665" result="effect3_dropShadow_9533_33665"></feBlend>
      <feBlend mode="normal" in="SourceGraphic" in2="effect3_dropShadow_9533_33665" result="shape"></feBlend>
    </filter>
    <filter id="filter3_i_9533_33665" x="275" y="331" width="246.311" height="27.5977" filterUnits="userSpaceOnUse" color-interpolation-filters="sRGB">
      <feFlood flood-opacity="0" result="BackgroundImageFix"></feFlood>
      <feBlend mode="normal" in="SourceGraphic" in2="BackgroundImageFix" result="shape"></feBlend>
      <feColorMatrix in="SourceAlpha" type="matrix" values="0 0 0 0 0 0 0 0 0 0 0 0 0 0 0 0 0 0 127 0" result="hardAlpha"></feColorMatrix>
      <feOffset dy="0.689947"></feOffset>
      <feComposite in2="hardAlpha" operator="arithmetic" k2="-1" k3="1"></feComposite>
      <feColorMatrix type="matrix" values="0 0 0 0 0.898039 0 0 0 0 0.898039 0 0 0 0 0.898039 0 0 0 1 0"></feColorMatrix>
      <feBlend mode="normal" in2="shape" result="effect1_innerShadow_9533_33665"></feBlend>
    </filter>
    <clipPath id="clip0_9533_33665">
      <rect x="48" y="33" width="321.726" height="253.082" rx="8" fill="white"></rect>
    </clipPath>
    <clipPath id="clip1_9533_33665">
      <rect width="322" height="0.693965" fill="white" transform="translate(48 90.6543)"></rect>
    </clipPath>
    <clipPath id="clip2_9533_33665">
      <rect width="259.059" height="0.693965" fill="white" transform="translate(94.0922 124.76)"></rect>
    </clipPath>
    <clipPath id="clip3_9533_33665">
      <rect width="259.059" height="0.693965" fill="white" transform="translate(94.0922 150.639)"></rect>
    </clipPath>
    <clipPath id="clip4_9533_33665">
      <rect width="259.059" height="0.693965" fill="white" transform="translate(94.0922 176.518)"></rect>
    </clipPath>
    <clipPath id="clip5_9533_33665">
      <rect width="259.059" height="0.693965" fill="white" transform="translate(94.0922 202.398)"></rect>
    </clipPath>
    <clipPath id="clip6_9533_33665">
      <rect width="259.059" height="0.693965" fill="white" transform="translate(94.0922 228.277)"></rect>
    </clipPath>
    <clipPath id="clip7_9533_33665">
      <rect width="322" height="0.693965" fill="white" transform="translate(48 254.43)"></rect>
    </clipPath>
    <clipPath id="clip8_9533_33665">
      <rect x="275" y="107" width="246" height="252" rx="8" fill="white"></rect>
    </clipPath>
  </defs>
</svg>
