<svg xmlns="http://www.w3.org/2000/svg" width="720" height="400" fill="none" viewBox="0 0 720 400"><rect width="251" height="255.922" x="418" y="33" fill="#edeef0" rx="8"/><path fill="#dadde1" d="M543.428 132.953a3.057 3.057 0 0 1 3.057 3.057v22.419h22.419a3.057 3.057 0 0 1 0 6.114h-22.419v22.419a3.057 3.057 0 0 1-6.114 0v-22.419h-22.419a3.056 3.056 0 1 1 0-6.114h22.419V136.01a3.057 3.057 0 0 1 3.057-3.057"/><g filter="url(#filter0_d_9533_33665)"><g clip-path="url(#clip0_9533_33665)"><rect width="321.726" height="253.082" x="48" y="33" fill="#fff" rx="8"/><path fill="#21232c" d="M60.164 53a6.94 6.94 0 1 1 13.88 0 6.94 6.94 0 0 1-13.88 0m6.94-5.924a5.924 5.924 0 1 0 0 11.848 5.924 5.924 0 0 0 0-11.848m-.502 10.088a.52.52 0 0 0 1.04 0v-.75c.991-.208 1.786-.934 1.786-1.94 0-.289-.058-.556-.197-.805a2 2 0 0 0-.548-.605c-.405-.316-.773-.432-1.179-.56l-.183-.059a5 5 0 0 0-.332-.092l-.053-.014a3 3 0 0 1-.302-.091 3 3 0 0 1-.347-.172l-.132-.078-.028-.018a.9.9 0 0 1-.243-.27.7.7 0 0 1-.064-.321c0-.408.443-.927 1.291-.96h.02l.055-.001c.482.023.776.148.954.265.181.119.274.25.326.334a.52.52 0 0 0 .884-.55 2.1 2.1 0 0 0-.638-.654 2.7 2.7 0 0 0-1.088-.397v-.59a.52.52 0 0 0-1.04 0v.616c-.986.212-1.805.927-1.805 1.937 0 .278.05.545.18.798.129.25.319.452.546.63l.019.014.02.012.001.001.004.003.014.009a4 4 0 0 0 .21.125c.127.072.308.169.485.237.152.06.298.099.42.13l.065.016c.099.025.177.045.256.07l.197.065c.41.13.597.19.847.386.157.122.236.215.279.292.039.07.065.156.065.297 0 .424-.426.935-1.28.96h-.086c-.482-.023-.776-.147-.954-.265a1.05 1.05 0 0 1-.326-.333.52.52 0 1 0-.883.55c.098.158.287.423.637.653a2.7 2.7 0 0 0 1.107.4zm-.776-4.758-.282.437z"/><path fill="#26292c" d="M80.96 57v-8.17h2.76c1.711 0 3.023.6 3.023 2.437 0 1.236-.637 1.998-1.612 2.335L87.067 57h-1.66l-1.75-3.173h-1.211V57zm1.486-4.36h1.124c1.112 0 1.711-.462 1.711-1.373 0-.925-.6-1.25-1.711-1.25h-1.124zm8.294 4.51c-1.7 0-3.023-1.174-3.023-3.223 0-1.998 1.399-3.223 2.835-3.223 1.662 0 2.561 1.2 2.561 2.923 0 .3-.025.525-.075.75h-3.872c.15 1.024.8 1.624 1.774 1.624.524 0 .999-.15 1.424-.425l.5.924c-.575.425-1.325.65-2.124.65m-1.574-3.872h2.648c0-.9-.425-1.424-1.224-1.424-.7 0-1.3.5-1.424 1.424m6.718 3.872c-1.037 0-1.424-.675-1.424-1.761V48.18h1.486v7.283c0 .362.163.487.313.487.075 0 .124 0 .225-.025l.174 1.087c-.174.087-.424.137-.774.137m3.478 0c-1.074 0-1.823-.725-1.823-1.799 0-1.349 1.074-2.023 3.597-2.298-.025-.625-.275-1.15-1.099-1.15-.6 0-1.174.25-1.724.575l-.525-.974c.675-.425 1.55-.8 2.524-.8 1.524 0 2.298.95 2.298 2.661V57h-1.199l-.125-.675h-.05c-.55.475-1.149.825-1.874.825m.45-1.174c.5 0 .874-.2 1.324-.625v-1.299c-1.674.2-2.173.575-2.173 1.2 0 .524.35.724.849.724m6.483 1.174c-1.437 0-1.961-.9-1.961-2.236v-2.886h-.875V50.93l.95-.075.175-1.91h1.224v1.91h1.561v1.174h-1.561v2.886c0 .712.287 1.062.862 1.062.212 0 .424-.038.637-.125l.262 1.037a3.1 3.1 0 0 1-1.274.262m4.692 0c-1.536 0-2.935-1.174-2.935-3.21 0-2.049 1.399-3.236 2.935-3.236 1.524 0 2.923 1.187 2.923 3.236 0 2.036-1.399 3.21-2.923 3.21m0-1.2c.887 0 1.412-.799 1.412-2.01 0-1.224-.525-2.024-1.412-2.024s-1.411.8-1.411 2.024c0 1.211.525 2.01 1.411 2.01m-.524-6.108-.737-.724 2.373-2.186.85.974zM115.307 57v-6.146h1.212l.112 1.1h.038c.45-.8 1.099-1.25 1.749-1.25.312 0 .512.05.699.125l-.3 1.262a2 2 0 0 0-.587-.075c-.487 0-1.074.325-1.436 1.262V57zm4.697 0v-6.146h1.486V57zm.749-7.195c-.524 0-.887-.337-.887-.837s.363-.837.887-.837c.525 0 .887.337.887.837s-.362.837-.887.837m5.068 7.345c-1.537 0-2.936-1.174-2.936-3.21 0-2.049 1.399-3.236 2.936-3.236 1.524 0 2.923 1.187 2.923 3.236 0 2.036-1.399 3.21-2.923 3.21m0-1.2c.887 0 1.411-.799 1.411-2.01 0-1.224-.524-2.024-1.411-2.024s-1.412.8-1.412 2.024c0 1.211.525 2.01 1.412 2.01m8.982 1.2c-1.537 0-2.524-1.187-2.524-3.21 0-2.011 1.249-3.236 2.598-3.236.687 0 1.125.263 1.599.675l-.062-.987v-2.21h1.474V57h-1.199l-.113-.662h-.05c-.449.45-1.074.812-1.723.812m.362-1.224c.462 0 .862-.2 1.249-.675v-2.823c-.412-.375-.812-.5-1.224-.5-.762 0-1.399.725-1.399 1.987 0 1.324.499 2.01 1.374 2.01m7.163 1.224c-1.699 0-3.023-1.174-3.023-3.223 0-1.998 1.399-3.223 2.835-3.223 1.662 0 2.561 1.2 2.561 2.923 0 .3-.025.525-.075.75h-3.872c.15 1.024.799 1.624 1.774 1.624.524 0 .999-.15 1.424-.425l.499.924c-.574.425-1.324.65-2.123.65m-1.574-3.872h2.648c0-.9-.425-1.424-1.224-1.424-.7 0-1.299.5-1.424 1.424m9.956 3.872c-1.537 0-2.524-1.187-2.524-3.21 0-2.011 1.249-3.236 2.598-3.236.687 0 1.125.263 1.599.675l-.062-.987v-2.21h1.474V57h-1.199l-.113-.662h-.05c-.449.45-1.074.812-1.723.812m.362-1.224c.462 0 .862-.2 1.249-.675v-2.823c-.412-.375-.812-.5-1.224-.5-.762 0-1.399.725-1.399 1.987 0 1.324.499 2.01 1.374 2.01m7.163 1.224c-1.699 0-3.023-1.174-3.023-3.223 0-1.998 1.399-3.223 2.835-3.223 1.662 0 2.561 1.2 2.561 2.923 0 .3-.025.525-.075.75h-3.872c.15 1.024.799 1.624 1.774 1.624.524 0 .999-.15 1.424-.425l.499.924c-.574.425-1.324.65-2.123.65m-1.574-3.872h2.648c0-.9-.425-1.424-1.224-1.424-.7 0-1.299.5-1.424 1.424m7.018 3.872c-.85 0-1.724-.325-2.324-.9l.65-.836c.537.437 1.099.624 1.724.624.649 0 .961-.3.961-.712 0-.512-.599-.712-1.286-.962-.887-.325-1.712-.837-1.712-1.81 0-1.075.875-1.85 2.249-1.85a3.1 3.1 0 0 1 2.048.75l-.637.837c-.437-.325-.886-.475-1.374-.475-.612 0-.887.3-.887.662 0 .45.438.625 1.212.887.95.325 1.786.812 1.786 1.874s-.849 1.91-2.41 1.91m6.291 0c-1.699 0-3.023-1.174-3.023-3.223 0-1.998 1.399-3.223 2.835-3.223 1.662 0 2.561 1.2 2.561 2.923 0 .3-.025.525-.075.75h-3.872c.15 1.024.799 1.624 1.774 1.624.524 0 .999-.15 1.424-.425l.499.924c-.574.425-1.324.65-2.123.65m-1.574-3.872h2.648c0-.9-.425-1.424-1.224-1.424-.7 0-1.299.5-1.424 1.424M173.69 57v-6.146h1.212l.112.837h.037c.525-.537 1.112-.987 1.887-.987.899 0 1.411.413 1.698 1.1.588-.625 1.187-1.1 1.974-1.1 1.299 0 1.899.9 1.899 2.449V57h-1.487v-3.66c0-1-.287-1.362-.924-1.362-.375 0-.8.238-1.262.75V57h-1.474v-3.66c0-1-.299-1.362-.924-1.362-.375 0-.8.238-1.262.75V57zm10.552 2.41v-8.556h1.211l.113.65h.037c.525-.437 1.174-.8 1.849-.8 1.524 0 2.411 1.237 2.411 3.136 0 2.098-1.249 3.31-2.611 3.31-.55 0-1.087-.25-1.574-.675l.05 1.025v1.91zm2.685-3.484c.8 0 1.424-.7 1.424-2.074 0-1.211-.399-1.923-1.311-1.923-.437 0-.85.212-1.312.674v2.836c.425.362.85.487 1.199.487m7.001 1.224c-1.699 0-3.023-1.174-3.023-3.223 0-1.998 1.399-3.223 2.835-3.223 1.662 0 2.561 1.2 2.561 2.923 0 .3-.025.525-.075.75h-3.872c.15 1.024.799 1.624 1.774 1.624.524 0 .999-.15 1.424-.425l.499.924c-.574.425-1.324.65-2.123.65m-1.574-3.872h2.648c0-.9-.425-1.424-1.224-1.424-.7 0-1.299.5-1.424 1.424M197.648 57v-6.146h1.212l.112.825h.037c.55-.525 1.175-.975 2.012-.975 1.324 0 1.898.9 1.898 2.449V57h-1.474v-3.66c0-1-.287-1.362-.937-1.362-.537 0-.886.25-1.374.75V57zm7.002 0v-8.819h1.486v2.274l-.062 1.174c.5-.475 1.112-.925 1.949-.925 1.324 0 1.898.9 1.898 2.449V57h-1.474v-3.66c0-1-.287-1.362-.937-1.362-.537 0-.886.25-1.374.75V57zm9.513.15c-1.536 0-2.935-1.174-2.935-3.21 0-2.049 1.399-3.236 2.935-3.236 1.524 0 2.923 1.187 2.923 3.236 0 2.036-1.399 3.21-2.923 3.21m0-1.2c.887 0 1.412-.799 1.412-2.01 0-1.224-.525-2.024-1.412-2.024s-1.411.8-1.411 2.024c0 1.211.524 2.01 1.411 2.01m8.982 1.2c-1.537 0-2.523-1.187-2.523-3.21 0-2.011 1.249-3.236 2.598-3.236.687 0 1.124.263 1.599.675l-.063-.987v-2.21h1.474V57h-1.199l-.112-.662h-.05c-.45.45-1.075.812-1.724.812m.362-1.224c.462 0 .862-.2 1.249-.675v-2.823c-.412-.375-.812-.5-1.224-.5-.762 0-1.399.725-1.399 1.987 0 1.324.5 2.01 1.374 2.01m7.163 1.224c-1.699 0-3.023-1.174-3.023-3.223 0-1.998 1.399-3.223 2.836-3.223 1.661 0 2.56 1.2 2.56 2.923 0 .3-.025.525-.075.75h-3.872c.15 1.024.8 1.624 1.774 1.624.525 0 .999-.15 1.424-.425l.5.924c-.575.425-1.325.65-2.124.65m-1.574-3.872h2.648c0-.9-.424-1.424-1.224-1.424-.699 0-1.299.5-1.424 1.424m9.219 3.872c-1.037 0-1.424-.675-1.424-1.761V48.18h1.486v7.283c0 .362.163.487.313.487.075 0 .125 0 .224-.025l.175 1.087c-.175.087-.424.137-.774.137m4.602 0c-1.698 0-3.022-1.174-3.022-3.223 0-1.998 1.399-3.223 2.835-3.223 1.661 0 2.561 1.2 2.561 2.923 0 .3-.025.525-.075.75h-3.872c.149 1.024.799 1.624 1.773 1.624.525 0 1-.15 1.424-.425l.5.924c-.575.425-1.324.65-2.124.65m-1.573-3.872h2.648c0-.9-.425-1.424-1.224-1.424-.7 0-1.3.5-1.424 1.424m6.646 3.872c-1.074 0-1.824-.725-1.824-1.799 0-1.349 1.075-2.023 3.598-2.298-.025-.625-.275-1.15-1.099-1.15-.6 0-1.175.25-1.724.575l-.525-.974c.675-.425 1.549-.8 2.523-.8 1.524 0 2.299.95 2.299 2.661V57h-1.199l-.125-.675h-.05c-.55.475-1.149.825-1.874.825m.45-1.174c.499 0 .874-.2 1.324-.625v-1.299c-1.674.2-2.174.575-2.174 1.2 0 .524.35.724.85.724m6.653 1.174c-1.536 0-2.523-1.187-2.523-3.21 0-2.011 1.249-3.236 2.598-3.236.687 0 1.124.263 1.599.675l-.063-.987v-2.21h1.474V57h-1.199l-.112-.662h-.05c-.45.45-1.074.812-1.724.812m.362-1.224c.462 0 .862-.2 1.249-.675v-2.823c-.412-.375-.812-.5-1.224-.5-.762 0-1.399.725-1.399 1.987 0 1.324.5 2.01 1.374 2.01m6.264 1.224c-.85 0-1.724-.325-2.324-.9l.65-.836c.537.437 1.099.624 1.724.624.649 0 .962-.3.962-.712 0-.512-.6-.712-1.287-.962-.887-.325-1.711-.837-1.711-1.81 0-1.075.874-1.85 2.248-1.85.837 0 1.549.313 2.049.75l-.637.837c-.438-.325-.887-.475-1.374-.475-.612 0-.887.3-.887.662 0 .45.437.625 1.211.887.95.325 1.787.812 1.787 1.874s-.85 1.91-2.411 1.91"/><path fill="#747678" d="M59.737 78.328v-4.992h1.58c1.107 0 1.94.39 1.94 1.55 0 1.114-.833 1.618-1.91 1.618h-.702v1.824zm.908-2.55h.634c.733 0 1.076-.29 1.076-.893 0-.61-.381-.824-1.106-.824h-.604zm3.681 2.55v-4.992h3.016v.763h-2.107v1.252h1.786v.763h-1.786v1.45h2.183v.764zm4.254 0v-4.992h1.687c1.046 0 1.848.366 1.848 1.488 0 .756-.39 1.222-.985 1.428l1.183 2.076h-1.015l-1.069-1.939h-.74v1.94zm.909-2.664h.686c.68 0 1.046-.282 1.046-.84 0-.565-.366-.763-1.046-.763h-.686zm3.762 2.664v-4.992h.909v4.992zm.016-5.252-.336-.443 1.511-1.038.39.588zm4.239 5.344c-1.305 0-2.206-.993-2.206-2.611 0-1.61.9-2.565 2.206-2.565 1.305 0 2.206.954 2.206 2.565 0 1.618-.9 2.61-2.206 2.61m0-.787c.771 0 1.275-.71 1.275-1.824 0-1.107-.504-1.771-1.275-1.771-.779 0-1.275.664-1.275 1.771 0 1.115.496 1.825 1.275 1.825m3.344.695v-4.992h1.335c1.527 0 2.443.817 2.443 2.473 0 1.664-.916 2.52-2.397 2.52zm.908-.733h.366c.993 0 1.565-.557 1.565-1.786 0-1.221-.572-1.733-1.565-1.733h-.366zm5.955.825c-1.305 0-2.206-.993-2.206-2.611 0-1.61.9-2.565 2.206-2.565s2.206.954 2.206 2.565c0 1.618-.9 2.61-2.206 2.61m0-.787c.771 0 1.275-.71 1.275-1.824 0-1.107-.504-1.771-1.275-1.771-.778 0-1.274.664-1.274 1.771 0 1.115.496 1.825 1.274 1.825m5.01.695v-4.992h1.58c1.108 0 1.94.39 1.94 1.55 0 1.114-.832 1.618-1.909 1.618h-.702v1.824zm.91-2.55h.633c.733 0 1.076-.29 1.076-.893 0-.61-.382-.824-1.107-.824h-.603zm3.68 2.55v-4.992h3.015v.763h-2.107v1.252h1.787v.763h-1.787v1.45h2.184v.764zm4.254 0v-4.992h1.687c1.046 0 1.847.366 1.847 1.488 0 .756-.389 1.222-.985 1.428l1.184 2.076h-1.016l-1.068-1.939h-.741v1.94zm.908-2.664h.687c.68 0 1.046-.282 1.046-.84 0-.565-.366-.763-1.046-.763h-.687zm5.117 2.756a2.5 2.5 0 0 1-1.802-.733l.489-.596c.358.344.855.543 1.336.543.549 0 .855-.252.855-.634 0-.397-.321-.527-.771-.718l-.68-.297c-.496-.207-1.007-.596-1.007-1.321 0-.802.702-1.42 1.679-1.42.603 0 1.16.244 1.55.618l-.489.596c-.313-.267-.679-.42-1.061-.42-.466 0-.763.214-.763.573 0 .381.374.519.786.694l.672.275c.595.252 1.007.626 1.007 1.351 0 .81-.672 1.489-1.801 1.489m4.794 0c-1.305 0-2.206-.993-2.206-2.611 0-1.61.901-2.565 2.206-2.565 1.306 0 2.206.954 2.206 2.565 0 1.618-.9 2.61-2.206 2.61m0-.787c.771 0 1.275-.71 1.275-1.824 0-1.107-.504-1.771-1.275-1.771-.778 0-1.275.664-1.275 1.771 0 1.115.497 1.825 1.275 1.825m3.344.695v-4.992h.969l1.496 2.748c.183.336.351.733.512 1.13h.03c-.053-.535-.114-1.145-.114-1.695v-2.183h.847v4.992h-.969l-1.497-2.748a11 11 0 0 1-.511-1.13h-.031c.054.52.115 1.138.115 1.695v2.183zm6.179-2.641-.168.595h1.251l-.167-.595c-.161-.527-.306-1.1-.451-1.641h-.03c-.13.55-.275 1.114-.435 1.64m-1.68 2.641 1.618-4.992h1.069l1.618 4.992h-.961l-.382-1.336h-1.657l-.381 1.336zm5.059 0v-4.992h.909v4.229h2.061v.763zm3.978 0v-4.992h.909v4.992zm1.98 0v-.542l2.389-3.687h-2.167v-.763h3.29v.55l-2.397 3.679h2.42v.763zm5.59-2.641-.168.595h1.252l-.168-.595c-.16-.527-.305-1.1-.45-1.641h-.031c-.129.55-.274 1.114-.435 1.64m-1.679 2.641 1.618-4.992h1.069l1.618 4.992h-.962l-.381-1.336h-1.657l-.381 1.336zm5.059 0v-4.992h1.336c1.527 0 2.443.817 2.443 2.473 0 1.664-.916 2.52-2.397 2.52zm.909-.733h.366c.992 0 1.565-.557 1.565-1.786 0-1.221-.573-1.733-1.565-1.733h-.366zm5.955.825c-1.305 0-2.206-.993-2.206-2.611 0-1.61.901-2.565 2.206-2.565s2.206.954 2.206 2.565c0 1.618-.901 2.61-2.206 2.61m0-.787c.771 0 1.275-.71 1.275-1.824 0-1.107-.504-1.771-1.275-1.771-.779 0-1.275.664-1.275 1.771 0 1.115.496 1.825 1.275 1.825"/><g clip-path="url(#clip1_9533_33665)"><path fill="#e5e5e5" d="M48 90.654h322v.694H48z"/></g><path fill="#747678" d="M83.286 124.924h1.804v-1.669c0-.297.027-.794.045-1.1H85.1c-.144.27-.306.523-.469.812zm1.804 2.183v-1.587h-2.589v-.497l2.463-3.671h.83v3.572h.785v.596h-.785v1.587zm3.988.109c-1.154 0-1.849-1.074-1.849-3.004 0-1.931.695-2.969 1.85-2.969 1.145 0 1.84 1.038 1.84 2.969s-.695 3.004-1.84 3.004m0-.605c.668 0 1.12-.712 1.12-2.399s-.452-2.364-1.12-2.364c-.667 0-1.118.676-1.118 2.364s.45 2.399 1.118 2.399"/><g clip-path="url(#clip2_9533_33665)"><path fill="#e5e5e5" d="M94.092 124.76h259.059v.694H94.092z"/></g><path fill="#747678" d="M84.477 153.095c-.92 0-1.507-.388-1.895-.812l.38-.488c.342.361.793.677 1.47.677.694 0 1.19-.406 1.19-1.046 0-.686-.469-1.146-1.84-1.146v-.568c1.218 0 1.633-.47 1.633-1.074 0-.55-.379-.902-.992-.902-.478 0-.885.243-1.227.577l-.397-.469c.442-.415.974-.722 1.65-.722 1.002 0 1.724.533 1.724 1.462 0 .694-.415 1.137-1.038 1.371v.036c.695.163 1.245.668 1.245 1.462 0 1.019-.848 1.642-1.903 1.642m4.601 0c-1.154 0-1.849-1.074-1.849-3.005s.695-2.968 1.85-2.968c1.145 0 1.84 1.038 1.84 2.968 0 1.931-.695 3.005-1.84 3.005m0-.605c.668 0 1.12-.713 1.12-2.4s-.452-2.363-1.12-2.363c-.667 0-1.118.676-1.118 2.363s.45 2.4 1.118 2.4"/><g clip-path="url(#clip3_9533_33665)"><path fill="#e5e5e5" d="M94.092 150.639h259.059v.694H94.092z"/></g><path fill="#747678" d="M82.709 178.865v-.46c1.714-1.678 2.706-2.742 2.706-3.672 0-.658-.36-1.118-1.092-1.118-.478 0-.893.306-1.217.685l-.424-.406c.478-.541.992-.893 1.732-.893 1.064 0 1.732.677 1.732 1.687 0 1.119-1.01 2.156-2.409 3.582.316-.027.668-.045.965-.045h1.723v.64zm6.37.108c-1.155 0-1.85-1.073-1.85-3.004 0-1.93.695-2.968 1.85-2.968 1.145 0 1.84 1.038 1.84 2.968 0 1.931-.695 3.004-1.84 3.004m0-.604c.667 0 1.118-.713 1.118-2.4s-.451-2.363-1.119-2.363-1.118.676-1.118 2.363.45 2.4 1.118 2.4"/><g clip-path="url(#clip4_9533_33665)"><path fill="#e5e5e5" d="M94.092 176.518h259.059v.694H94.092z"/></g><path fill="#747678" d="M83.06 204.746v-.622h1.317v-4.222h-1.055v-.488c.532-.09.911-.234 1.227-.424h.577v5.134h1.182v.622zm6.018.108c-1.154 0-1.849-1.073-1.849-3.004 0-1.93.695-2.968 1.85-2.968 1.145 0 1.84 1.038 1.84 2.968 0 1.931-.695 3.004-1.84 3.004m0-.604c.668 0 1.12-.713 1.12-2.4s-.452-2.363-1.12-2.363c-.667 0-1.118.676-1.118 2.363s.45 2.4 1.118 2.4"/><g clip-path="url(#clip5_9533_33665)"><path fill="#e5e5e5" d="M94.092 202.398h259.059v.694H94.092z"/></g><path fill="#747678" d="M89.078 230.733c-1.154 0-1.849-1.073-1.849-3.004s.695-2.968 1.85-2.968c1.145 0 1.84 1.037 1.84 2.968s-.695 3.004-1.84 3.004m0-.604c.668 0 1.12-.713 1.12-2.4s-.452-2.364-1.12-2.364c-.667 0-1.118.677-1.118 2.364s.45 2.4 1.118 2.4"/><g clip-path="url(#clip6_9533_33665)"><path fill="#e5e5e5" d="M94.092 228.277h259.059v.694H94.092z"/></g><path fill="#26292c" d="M116.022 126.483c-.929 0-1.542-.352-1.948-.812l.505-.676c.343.343.785.622 1.353.622.614 0 1.047-.316 1.047-.848 0-.586-.379-.965-1.678-.965v-.776c1.118 0 1.479-.379 1.479-.902 0-.469-.306-.749-.83-.749-.442 0-.794.208-1.145.532l-.551-.658c.496-.433 1.047-.722 1.741-.722 1.101 0 1.859.55 1.859 1.516 0 .64-.37 1.073-.993 1.317v.036c.677.18 1.191.667 1.191 1.425 0 1.047-.92 1.66-2.03 1.66m3.787-4.068c0 .667.333 1.01.884 1.01.333 0 .73-.199 1.019-.668-.108-1.001-.523-1.416-1.064-1.416-.47 0-.839.379-.839 1.074m.649 4.068a2.1 2.1 0 0 1-1.543-.649l.569-.65c.216.244.568.433.92.433.713 0 1.29-.532 1.335-2.093-.334.415-.83.668-1.245.668-.983 0-1.669-.578-1.669-1.777 0-1.155.821-1.886 1.814-1.886 1.118 0 2.083.866 2.083 2.806 0 2.219-1.082 3.148-2.264 3.148"/><path fill="#779288" d="M108.082 133.15c0-.767.621-1.388 1.388-1.388h18.043c.766 0 1.388.621 1.388 1.388v14.573h-20.819z"/><path fill="#d0d7d3" d="M108.082 148.416h20.819v33.31h-20.819z"/><path fill="#b5b4f7" d="M108.082 182.422h20.819v47.19h-20.819z"/><path fill="#747678" d="M114.588 239.108c-.712 0-1.245-.315-1.57-.956l.506-.343c.252.442.586.632 1.019.632.65 0 .965-.361.965-1.272v-4.087h.758v4.15c0 1.046-.487 1.876-1.678 1.876m4.488 0c-.929 0-1.344-.595-1.344-1.714v-2.778h.749v2.679c0 .812.252 1.164.83 1.164.442 0 .758-.226 1.164-.74v-3.103h.748V239h-.613l-.063-.686h-.027c-.406.479-.839.794-1.444.794m4.411 0c-.559 0-.785-.361-.785-.992v-5.539h.749v5.593c0 .235.099.316.217.316.045 0 .081 0 .153-.018l.099.559a.95.95 0 0 1-.433.081"/><path fill="#26292c" d="M159.626 132.729c-.929 0-1.543-.351-1.949-.812l.505-.676c.343.343.785.622 1.354.622.613 0 1.046-.315 1.046-.848 0-.586-.379-.965-1.678-.965v-.776c1.119 0 1.48-.379 1.48-.902 0-.469-.307-.749-.83-.749-.442 0-.794.208-1.146.532l-.55-.658c.496-.433 1.046-.722 1.741-.722 1.1 0 1.858.55 1.858 1.516 0 .64-.37 1.073-.992 1.317v.036c.677.18 1.191.668 1.191 1.425 0 1.047-.92 1.66-2.03 1.66m3.903-.108c.109-2.021.524-3.284 1.669-4.835h-2.706v-.903h3.861v.65c-1.371 1.687-1.642 2.851-1.741 5.088z"/><path fill="#779288" d="M151.685 139.396c0-.767.622-1.388 1.388-1.388h18.043c.767 0 1.388.621 1.388 1.388v8.327h-20.819z"/><path fill="#d0d7d3" d="M151.685 148.418h20.819v20.819h-20.819z"/><path fill="#b5b4f7" d="M151.685 169.93h20.819v59.681h-20.819z"/><path fill="#747678" d="m156.821 235.698-.28.893h1.769l-.28-.893a41 41 0 0 1-.595-1.994h-.037c-.18.686-.369 1.336-.577 1.994M155.008 239l1.993-5.918h.867l1.993 5.918h-.803l-.559-1.795h-2.156l-.568 1.795zm7.099 2.021c-1.073 0-1.813-.424-1.813-1.182 0-.37.243-.722.64-.992v-.036a.81.81 0 0 1-.388-.713c0-.37.253-.659.479-.812v-.036a1.55 1.55 0 0 1-.569-1.182c0-.956.758-1.561 1.651-1.561.244 0 .46.045.623.109h1.524v.577h-.893c.208.198.352.523.352.893 0 .938-.713 1.525-1.606 1.525a1.5 1.5 0 0 1-.649-.154c-.163.136-.28.28-.28.524 0 .27.18.469.767.469h.848c1.019 0 1.534.324 1.534 1.046 0 .821-.858 1.525-2.22 1.525m0-3.916c.505 0 .929-.396.929-1.037 0-.632-.415-1.019-.929-1.019s-.929.378-.929 1.019.424 1.037.929 1.037m.108 3.393c.83 0 1.381-.433 1.381-.885 0-.406-.307-.541-.884-.541h-.749c-.172 0-.379-.018-.568-.072-.316.226-.452.487-.452.74 0 .469.479.758 1.272.758m4.549-1.39c-1.073 0-2.03-.839-2.03-2.291 0-1.471.957-2.31 2.03-2.31 1.074 0 2.039.839 2.039 2.31 0 1.452-.965 2.291-2.039 2.291m0-.622c.758 0 1.263-.668 1.263-1.669 0-1.011-.505-1.687-1.263-1.687-.749 0-1.254.676-1.254 1.687 0 1.001.505 1.669 1.254 1.669"/><path fill="#26292c" d="M203.229 126.483c-.929 0-1.542-.352-1.948-.812l.505-.676c.343.343.785.622 1.353.622.614 0 1.047-.316 1.047-.848 0-.586-.379-.965-1.678-.965v-.776c1.118 0 1.479-.379 1.479-.902 0-.469-.307-.749-.83-.749-.442 0-.794.208-1.146.532l-.55-.658c.496-.433 1.047-.722 1.741-.722 1.101 0 1.859.55 1.859 1.516 0 .64-.37 1.073-.993 1.317v.036c.677.18 1.191.667 1.191 1.425 0 1.047-.92 1.66-2.03 1.66m3.786-4.068c0 .667.334 1.01.885 1.01.333 0 .73-.199 1.019-.668-.108-1.001-.523-1.416-1.065-1.416-.469 0-.839.379-.839 1.074m.65 4.068a2.1 2.1 0 0 1-1.543-.649l.569-.65c.216.244.568.433.92.433.713 0 1.29-.532 1.335-2.093-.334.415-.83.668-1.245.668-.983 0-1.669-.578-1.669-1.777 0-1.155.821-1.886 1.813-1.886 1.119 0 2.084.866 2.084 2.806 0 2.219-1.082 3.148-2.264 3.148"/><path fill="#779288" d="M195.289 133.15c0-.767.621-1.388 1.388-1.388h18.043c.766 0 1.388.621 1.388 1.388v14.573h-20.819z"/><path fill="#d0d7d3" d="M195.289 148.416h20.819v33.31h-20.819z"/><path fill="#b5b4f7" d="M195.289 182.422h20.819v47.19h-20.819z"/><path fill="#747678" d="M202.02 239.108c-.848 0-1.56-.334-2.075-.884l.424-.496a2.35 2.35 0 0 0 1.66.713c.776 0 1.236-.388 1.236-.957 0-.604-.433-.794-.983-1.037l-.857-.379c-.55-.235-1.191-.65-1.191-1.525 0-.902.785-1.569 1.858-1.569a2.47 2.47 0 0 1 1.751.712l-.415.506a1.92 1.92 0 0 0-1.336-.551c-.658 0-1.091.334-1.091.857 0 .569.514.785.974.975l.848.369c.686.289 1.218.704 1.218 1.579 0 .938-.776 1.687-2.021 1.687m4.874 0c-1.173 0-2.093-.848-2.093-2.3 0-1.426.965-2.301 1.966-2.301 1.119 0 1.759.794 1.759 2.057 0 .163-.009.298-.036.442h-2.95c.063.902.614 1.498 1.444 1.498.424 0 .794-.117 1.1-.325l.262.478a2.4 2.4 0 0 1-1.452.451m-1.354-2.679h2.319c0-.866-.406-1.326-1.074-1.326-.613 0-1.154.487-1.245 1.326m5.353 2.679c-.938 0-1.254-.595-1.254-1.47v-2.418h-.649v-.559l.685-.045.09-1.408h.623v1.408h1.191v.604h-1.191v2.436c0 .532.18.839.676.839.163 0 .325-.027.506-.108l.153.532a2 2 0 0 1-.83.189"/><path fill="#26292c" d="M246.833 145.22c-.929 0-1.543-.352-1.949-.812l.505-.677c.343.343.785.623 1.354.623.613 0 1.046-.316 1.046-.849 0-.586-.379-.965-1.678-.965v-.776c1.119 0 1.48-.379 1.48-.902 0-.469-.307-.749-.83-.749-.442 0-.794.208-1.146.533l-.55-.659c.496-.433 1.046-.722 1.741-.722 1.1 0 1.858.551 1.858 1.516 0 .641-.37 1.074-.992 1.317v.036c.676.181 1.191.668 1.191 1.426 0 1.046-.921 1.66-2.03 1.66m3.136-.109v-.866h1.281v-3.726h-1.064v-.667c.577-.108.965-.262 1.335-.478h.794v4.871h1.119v.866z"/><path fill="#779288" d="M238.892 151.888c0-.767.622-1.388 1.388-1.388h18.043c.767 0 1.388.621 1.388 1.388v4.858h-20.819z"/><path fill="#d0d7d3" d="M238.892 157.439h20.819v18.737h-20.819z"/><path fill="#b5b4f7" d="M238.892 176.871h20.819v52.741h-20.819z"/><path fill="#747678" d="M245.319 239.108c-1.488 0-2.526-1.191-2.526-3.094 0-1.895 1.038-3.04 2.526-3.04 1.489 0 2.535 1.154 2.535 3.04 0 1.903-1.046 3.094-2.535 3.094m0-.667c1.056 0 1.75-.948 1.75-2.427 0-1.471-.694-2.373-1.75-2.373-1.055 0-1.741.902-1.741 2.373 0 1.479.686 2.427 1.741 2.427m5.017.667c-.929 0-1.344-.595-1.344-1.714v-2.778h.748v2.679c0 .812.253 1.164.83 1.164.442 0 .758-.226 1.164-.74v-3.103h.749V239h-.614l-.063-.686h-.027c-.406.479-.839.794-1.443.794m5.006 0c-.938 0-1.254-.595-1.254-1.47v-2.418h-.649v-.559l.685-.045.091-1.408h.622v1.408h1.191v.604h-1.191v2.436c0 .532.18.839.677.839.162 0 .324-.027.505-.108l.153.532a2 2 0 0 1-.83.189"/><path fill="#26292c" d="M289.489 121.308h1.47v-1.263c0-.334.037-.866.055-1.2h-.036c-.145.298-.307.587-.47.893zm1.47 2.292v-1.462h-2.526v-.731l2.265-3.545h1.263v3.446h.713v.83h-.713v1.462zm4.265.108c-1.191 0-1.958-1.065-1.958-3.004s.767-2.95 1.958-2.95c1.2 0 1.957 1.019 1.957 2.95 0 1.939-.757 3.004-1.957 3.004m0-.839c.55 0 .938-.541.938-2.165 0-1.615-.388-2.12-.938-2.12-.542 0-.939.505-.939 2.12 0 1.624.397 2.165.939 2.165"/><path fill="#779288" d="M282.496 130.376c0-.766.621-1.388 1.388-1.388h18.043c.766 0 1.388.622 1.388 1.388v2.776h-20.819z"/><path fill="#d0d7d3" d="M282.496 133.846h20.819v39.556h-20.819z"/><path fill="#b5b4f7" d="M282.496 174.096h20.819v55.517h-20.819z"/><path fill="#747678" d="M286.264 239v-5.918h.812l2.111 3.69c.225.397.433.839.64 1.272h.036c-.045-.614-.099-1.263-.099-1.877v-3.085h.713V239h-.812l-2.111-3.69a17 17 0 0 1-.641-1.272h-.036c.045.596.099 1.236.099 1.85V239zm7.465.108c-1.074 0-2.03-.839-2.03-2.291 0-1.471.956-2.31 2.03-2.31s2.039.839 2.039 2.31c0 1.452-.965 2.291-2.039 2.291m0-.622c.758 0 1.263-.668 1.263-1.669 0-1.011-.505-1.687-1.263-1.687-.749 0-1.254.676-1.254 1.687 0 1.001.505 1.669 1.254 1.669m4.097.514-1.579-4.384h.776l.821 2.48c.135.433.27.876.406 1.3h.036c.126-.424.27-.867.406-1.3l.821-2.48h.739L298.701 239z"/><path fill="#26292c" d="M334.04 129.259c-.93 0-1.543-.352-1.949-.812l.505-.677c.343.343.785.623 1.353.623.614 0 1.047-.316 1.047-.848 0-.587-.379-.966-1.678-.966v-.776c1.119 0 1.479-.379 1.479-.902 0-.469-.306-.749-.83-.749-.442 0-.793.208-1.145.533l-.551-.659c.497-.433 1.047-.722 1.742-.722 1.1 0 1.858.551 1.858 1.516 0 .641-.37 1.074-.992 1.317v.036c.676.181 1.19.668 1.19 1.426 0 1.046-.92 1.66-2.029 1.66m4.787 0c-1.119 0-1.949-.65-1.949-1.579 0-.713.488-1.182 1.029-1.471v-.036c-.433-.315-.785-.73-.785-1.335 0-.938.74-1.534 1.741-1.534 1.029 0 1.696.623 1.696 1.552 0 .568-.397 1.047-.776 1.308v.036c.533.307.993.731.993 1.498 0 .884-.776 1.561-1.949 1.561m.379-3.356c.298-.298.469-.623.469-.984 0-.496-.307-.857-.83-.857-.433 0-.776.28-.776.776 0 .559.506.812 1.137 1.065m-.352 2.598c.541 0 .929-.316.929-.839 0-.614-.595-.839-1.371-1.155-.343.262-.595.632-.595 1.065 0 .559.451.929 1.037.929"/><path fill="#779288" d="M326.099 135.927c0-.767.622-1.388 1.388-1.388h18.043c.767 0 1.388.621 1.388 1.388v2.082h-20.819z"/><path fill="#d0d7d3" d="M326.099 138.703h20.819v24.289h-20.819z"/><path fill="#b5b4f7" d="M326.099 163.686h20.819v65.927h-20.819z"/><path fill="#747678" d="M330.246 239v-5.918h1.48c1.822 0 2.796 1.055 2.796 2.932 0 1.885-.974 2.986-2.76 2.986zm.758-.622h.667c1.381 0 2.066-.867 2.066-2.364 0-1.489-.685-2.31-2.066-2.31h-.667zm6.497.73c-1.173 0-2.093-.848-2.093-2.3 0-1.426.966-2.301 1.967-2.301 1.119 0 1.759.794 1.759 2.057 0 .163-.009.298-.036.442h-2.95c.063.902.613 1.498 1.443 1.498a1.93 1.93 0 0 0 1.101-.325l.262.478a2.42 2.42 0 0 1-1.453.451m-1.353-2.679h2.319c0-.866-.406-1.326-1.074-1.326-.613 0-1.155.487-1.245 1.326m5.793 2.679c-1.164 0-2.057-.839-2.057-2.291 0-1.471.983-2.31 2.111-2.31.577 0 .974.226 1.281.514l-.37.47c-.244-.226-.523-.361-.875-.361-.794 0-1.371.676-1.371 1.687 0 1.001.541 1.669 1.344 1.669a1.56 1.56 0 0 0 1.028-.415l.325.478a2.1 2.1 0 0 1-1.416.559"/><g clip-path="url(#clip7_9533_33665)"><path fill="#e5e5e5" d="M48 254.43h322v.694H48z"/></g><circle cx="61.879" cy="272.227" r="2.776" fill="#779288"/><path fill="#747678" d="M71.019 274.227v-5.919h1.687c1.326 0 2.228.442 2.228 1.742 0 1.254-.893 1.831-2.192 1.831h-.965v2.346zm.758-2.96h.875c1.028 0 1.524-.378 1.524-1.217 0-.848-.523-1.128-1.56-1.128h-.84zm5.836 3.068c-1.172 0-2.093-.848-2.093-2.301 0-1.425.966-2.3 1.967-2.3 1.119 0 1.76.794 1.76 2.057 0 .162-.01.297-.037.442h-2.95c.063.902.614 1.497 1.444 1.497.424 0 .793-.117 1.1-.324l.262.478c-.38.27-.848.451-1.453.451m-1.353-2.68h2.319c0-.866-.406-1.326-1.074-1.326-.613 0-1.155.487-1.245 1.326m4.06 2.572v-4.385h.614l.063.794h.027c.307-.55.758-.902 1.245-.902.199 0 .334.027.47.09l-.163.641a1.3 1.3 0 0 0-.397-.055c-.37 0-.812.262-1.11 1.002v2.815zm4.547.108c-1.101 0-1.814-.83-1.814-2.292 0-1.425.902-2.309 1.904-2.309.505 0 .839.189 1.227.505l-.036-.749v-1.687h.748v6.424h-.613l-.063-.515h-.027c-.343.334-.812.623-1.326.623m.162-.632c.406 0 .758-.198 1.119-.595v-2.292c-.37-.333-.704-.451-1.065-.451-.695 0-1.254.668-1.254 1.669 0 1.047.433 1.669 1.2 1.669m3.344.524v-4.385h.749v4.385zm.379-5.287c-.289 0-.496-.19-.496-.487 0-.289.207-.487.496-.487s.496.198.496.487c0 .297-.207.487-.496.487m3.348 5.395c-1.101 0-1.814-.83-1.814-2.292 0-1.425.902-2.309 1.904-2.309.505 0 .839.189 1.227.505l-.036-.749v-1.687h.748v6.424h-.613l-.063-.515h-.027c-.343.334-.812.623-1.326.623m.162-.632c.406 0 .758-.198 1.119-.595v-2.292c-.37-.333-.704-.451-1.065-.451-.695 0-1.254.668-1.254 1.669 0 1.047.433 1.669 1.2 1.669m5.05.632c-1.074 0-2.03-.839-2.03-2.292 0-1.47.956-2.309 2.03-2.309s2.038.839 2.038 2.309c0 1.453-.965 2.292-2.039 2.292m0-.623c.757 0 1.262-.667 1.262-1.669 0-1.01-.505-1.687-1.263-1.687-.749 0-1.254.677-1.254 1.687 0 1.002.505 1.669 1.254 1.669"/><circle cx="111.31" cy="272.227" r="2.776" fill="#9c99f5"/><path fill="#747678" d="M122.777 274.335c-1.56 0-2.67-1.137-2.67-3.068 0-1.903 1.146-3.067 2.716-3.067.821 0 1.362.361 1.705.731l-.415.469c-.298-.307-.677-.532-1.272-.532-1.191 0-1.949.911-1.949 2.381 0 1.489.695 2.418 1.958 2.418.424 0 .83-.126 1.064-.343v-1.542h-1.254v-.623h1.949v2.49c-.388.397-1.038.686-1.832.686m4.179 0c-.731 0-1.281-.451-1.281-1.245 0-.974.812-1.444 2.688-1.651-.009-.55-.189-1.083-.902-1.083-.505 0-.965.226-1.308.451l-.288-.505c.405-.27 1.019-.568 1.723-.568 1.064 0 1.524.713 1.524 1.795v2.698h-.613l-.072-.524h-.027c-.415.352-.894.632-1.444.632m.208-.614c.424 0 .775-.189 1.199-.559v-1.191c-1.479.172-1.957.505-1.957 1.074 0 .487.334.676.758.676m3.328.506v-4.385h.613l.063.632h.027c.415-.415.866-.74 1.471-.74.929 0 1.344.595 1.344 1.714v2.779h-.749v-2.68c0-.821-.252-1.164-.83-1.164-.442 0-.757.226-1.191.668v3.176zm4.933 0v-6.424h.749v1.75l-.027.903c.406-.397.848-.722 1.453-.722.929 0 1.344.595 1.344 1.714v2.779h-.749v-2.68c0-.821-.253-1.164-.83-1.164-.442 0-.758.226-1.191.668v3.176zm6.613.108c-1.074 0-2.03-.839-2.03-2.292 0-1.47.956-2.309 2.03-2.309s2.039.839 2.039 2.309c0 1.453-.966 2.292-2.039 2.292m0-.623c.757 0 1.263-.667 1.263-1.669 0-1.01-.506-1.687-1.263-1.687-.749 0-1.254.677-1.254 1.687 0 1.002.505 1.669 1.254 1.669"/><circle cx="155.741" cy="272.227" r="2.776" fill="#d0d7d3"/><path fill="#747678" d="M164.881 274.227v-5.919h3.41v.641h-2.652v1.849h2.237v.641h-2.237v2.147h2.742v.641zm4.685 0v-4.385h.614l.063.632h.027c.388-.415.839-.74 1.362-.74.677 0 1.038.316 1.218.83.451-.487.911-.83 1.443-.83.903 0 1.336.595 1.336 1.714v2.779h-.749v-2.68c0-.821-.262-1.164-.812-1.164-.343 0-.695.217-1.101.668v3.176h-.748v-2.68c0-.821-.253-1.164-.812-1.164-.325 0-.686.217-1.092.668v3.176zm10.296.108c-.73 0-1.281-.451-1.281-1.245 0-.974.812-1.444 2.689-1.651-.009-.55-.19-1.083-.902-1.083-.506 0-.966.226-1.308.451l-.289-.505c.406-.27 1.019-.568 1.723-.568 1.064 0 1.525.713 1.525 1.795v2.698h-.614l-.072-.524h-.027c-.415.352-.893.632-1.444.632m.208-.614c.424 0 .776-.189 1.2-.559v-1.191c-1.48.172-1.958.505-1.958 1.074 0 .487.334.676.758.676m5.268.614c-.406 0-.857-.208-1.245-.56h-.027l-.073.452h-.595v-6.424h.749v1.75l-.027.785c.406-.343.893-.604 1.38-.604 1.128 0 1.741.875 1.741 2.228 0 1.498-.902 2.373-1.903 2.373m-.127-.632c.722 0 1.254-.649 1.254-1.732 0-.965-.333-1.606-1.154-1.606-.37 0-.749.199-1.164.596v2.291c.379.334.776.451 1.064.451m4.951.632c-1.173 0-2.093-.848-2.093-2.301 0-1.425.965-2.3 1.966-2.3 1.119 0 1.759.794 1.759 2.057 0 .162-.009.297-.036.442h-2.95c.064.902.614 1.497 1.444 1.497.424 0 .794-.117 1.1-.324l.262.478c-.379.27-.848.451-1.452.451m-1.354-2.68h2.319c0-.866-.406-1.326-1.074-1.326-.613 0-1.154.487-1.245 1.326m4.061 2.572v-4.385h.613l.064.794h.027c.306-.55.757-.902 1.245-.902.198 0 .333.027.469.09l-.163.641a1.3 1.3 0 0 0-.397-.055c-.37 0-.812.262-1.109 1.002v2.815zm4.517.108c-.939 0-1.254-.596-1.254-1.471v-2.417h-.65v-.56l.686-.045.09-1.407h.622v1.407h1.191v.605h-1.191v2.435c0 .533.181.839.677.839.162 0 .325-.027.505-.108l.154.532c-.235.109-.533.19-.83.19m3.258 0c-1.073 0-2.03-.839-2.03-2.292 0-1.47.957-2.309 2.03-2.309 1.074 0 2.039.839 2.039 2.309 0 1.453-.965 2.292-2.039 2.292m0-.623c.758 0 1.263-.667 1.263-1.669 0-1.01-.505-1.687-1.263-1.687-.749 0-1.254.677-1.254 1.687 0 1.002.505 1.669 1.254 1.669"/></g></g><g filter="url(#filter1_d_9533_33665)"><g clip-path="url(#clip8_9533_33665)"><rect width="246" height="252" x="275" y="107" fill="#fff" rx="8"/><g filter="url(#filter2_ddd_9533_33665)"><rect width="246.311" height="251.831" x="274.689" y="106.988" fill="#fff" rx="2.76"/></g><path fill="#21232c" d="M286.829 126.314a6.9 6.9 0 1 1 13.8 0 6.9 6.9 0 0 1-13.8 0m6.9-5.89a5.89 5.89 0 1 0 0 11.78 5.89 5.89 0 0 0 0-11.78m-.499 10.029a.518.518 0 1 0 1.035 0v-.745c.985-.207 1.775-.929 1.775-1.93 0-.286-.058-.552-.197-.8a2 2 0 0 0-.544-.601c-.403-.314-.768-.43-1.172-.557l-.182-.058c-.114-.038-.232-.067-.33-.092l-.052-.013a3 3 0 0 1-.301-.092 3 3 0 0 1-.476-.248l-.028-.017a.9.9 0 0 1-.242-.269.7.7 0 0 1-.064-.319c0-.406.441-.922 1.284-.955h.021l.054-.001c.479.023.771.147.949.264.179.118.272.249.323.332a.518.518 0 0 0 .879-.548 2.1 2.1 0 0 0-.634-.649 2.7 2.7 0 0 0-1.082-.395v-.586a.517.517 0 1 0-1.035 0v.612c-.979.211-1.794.921-1.794 1.926 0 .276.05.541.179.793.129.249.318.449.544.626l.018.014.02.012v.001l.002.001.004.002.013.009.047.029q.062.038.161.095c.127.072.307.168.483.236.152.059.297.098.418.129l.065.017c.097.024.175.044.253.07l.197.063c.407.13.593.19.842.384.156.122.234.214.277.29.039.07.065.156.065.295 0 .423-.423.93-1.273.955l-.085.001c-.479-.023-.772-.147-.949-.264a1.05 1.05 0 0 1-.324-.332.518.518 0 0 0-.878.548c.098.157.285.42.634.649.277.182.636.33 1.1.398zm-.772-4.731-.28.435z"/><path fill="#26292c" d="M306.078 130.312v-8.122h2.744c1.702 0 3.006.597 3.006 2.422 0 1.23-.634 1.987-1.602 2.323l1.925 3.377h-1.652l-1.739-3.154h-1.204v3.154zm1.478-4.334h1.117c1.106 0 1.702-.459 1.702-1.366 0-.919-.596-1.242-1.702-1.242h-1.117zm8.246 4.484c-1.689 0-3.006-1.168-3.006-3.205 0-1.987 1.391-3.204 2.819-3.204 1.652 0 2.546 1.193 2.546 2.906 0 .298-.025.522-.074.746h-3.85c.149 1.018.795 1.614 1.763 1.614.522 0 .994-.149 1.416-.422l.497.919c-.571.422-1.317.646-2.111.646m-1.565-3.85h2.633c0-.895-.423-1.416-1.217-1.416-.696 0-1.292.497-1.416 1.416m6.679 3.85c-1.031 0-1.416-.671-1.416-1.752v-7.165h1.478v7.24c0 .36.161.484.31.484.075 0 .125 0 .224-.025l.174 1.081c-.174.087-.422.137-.77.137m3.458 0c-1.068 0-1.813-.721-1.813-1.789 0-1.341 1.068-2.012 3.577-2.285-.025-.621-.274-1.142-1.093-1.142-.596 0-1.168.248-1.714.571l-.522-.969c.671-.422 1.54-.795 2.509-.795 1.515 0 2.285.944 2.285 2.646v3.613h-1.192l-.124-.67h-.05c-.546.472-1.143.82-1.863.82m.447-1.168c.497 0 .87-.199 1.317-.621v-1.291c-1.665.198-2.161.571-2.161 1.192 0 .521.347.72.844.72m6.446 1.168c-1.429 0-1.95-.895-1.95-2.223v-2.869h-.869v-1.093l.943-.075.174-1.9h1.217v1.9h1.553v1.168h-1.553v2.869c0 .707.286 1.055.857 1.055.211 0 .422-.037.634-.124l.26 1.031a3.1 3.1 0 0 1-1.266.261m4.665 0c-1.528 0-2.919-1.168-2.919-3.192 0-2.037 1.391-3.217 2.919-3.217 1.515 0 2.906 1.18 2.906 3.217 0 2.024-1.391 3.192-2.906 3.192m0-1.193c.882 0 1.403-.795 1.403-1.999 0-1.217-.521-2.012-1.403-2.012s-1.403.795-1.403 2.012c0 1.204.521 1.999 1.403 1.999m-.522-6.073-.732-.72 2.359-2.173.845.968zm4.817 7.116v-6.11h1.204l.112 1.093h.037c.448-.795 1.093-1.242 1.739-1.242.311 0 .509.05.696.124l-.298 1.255a2 2 0 0 0-.584-.075c-.484 0-1.068.323-1.428 1.255v3.7zm4.669 0v-6.11h1.478v6.11zm.745-7.153c-.521 0-.882-.335-.882-.832s.361-.832.882-.832c.522 0 .882.335.882.832s-.36.832-.882.832m5.039 7.303c-1.528 0-2.919-1.168-2.919-3.192 0-2.037 1.391-3.217 2.919-3.217 1.515 0 2.906 1.18 2.906 3.217 0 2.024-1.391 3.192-2.906 3.192m0-1.193c.881 0 1.403-.795 1.403-1.999 0-1.217-.522-2.012-1.403-2.012-.882 0-1.404.795-1.404 2.012 0 1.204.522 1.999 1.404 1.999m8.929 1.193c-1.527 0-2.508-1.18-2.508-3.192 0-2 1.241-3.217 2.583-3.217.683 0 1.117.261 1.589.671l-.062-.981v-2.198h1.466v8.767h-1.193l-.111-.658h-.05c-.447.447-1.068.808-1.714.808m.36-1.218c.46 0 .857-.198 1.242-.67v-2.807c-.41-.372-.807-.497-1.217-.497-.757 0-1.391.721-1.391 1.975 0 1.316.497 1.999 1.366 1.999m7.122 1.218c-1.689 0-3.006-1.168-3.006-3.205 0-1.987 1.391-3.204 2.819-3.204 1.652 0 2.546 1.193 2.546 2.906 0 .298-.024.522-.074.746h-3.85c.149 1.018.795 1.614 1.763 1.614.522 0 .994-.149 1.416-.422l.497.919c-.571.422-1.316.646-2.111.646m-1.565-3.85h2.633c0-.895-.422-1.416-1.217-1.416-.696 0-1.292.497-1.416 1.416m9.898 3.85c-1.528 0-2.509-1.18-2.509-3.192 0-2 1.242-3.217 2.584-3.217.683 0 1.117.261 1.589.671l-.062-.981v-2.198h1.466v8.767h-1.193l-.111-.658h-.05c-.447.447-1.068.808-1.714.808m.36-1.218c.46 0 .857-.198 1.242-.67v-2.807c-.41-.372-.807-.497-1.217-.497-.758 0-1.391.721-1.391 1.975 0 1.316.497 1.999 1.366 1.999m7.122 1.218c-1.689 0-3.006-1.168-3.006-3.205 0-1.987 1.391-3.204 2.819-3.204 1.652 0 2.546 1.193 2.546 2.906 0 .298-.025.522-.074.746h-3.85c.149 1.018.795 1.614 1.763 1.614.522 0 .994-.149 1.416-.422l.497.919c-.571.422-1.317.646-2.111.646m-1.565-3.85h2.633c0-.895-.423-1.416-1.217-1.416-.696 0-1.292.497-1.416 1.416m6.977 3.85c-.844 0-1.714-.323-2.31-.895l.646-.832c.534.435 1.093.621 1.714.621.645 0 .956-.298.956-.708 0-.509-.596-.708-1.279-.956-.882-.323-1.702-.832-1.702-1.801 0-1.068.87-1.838 2.236-1.838.832 0 1.54.311 2.037.745l-.634.833c-.435-.323-.882-.472-1.366-.472-.608 0-.882.298-.882.658 0 .447.435.621 1.205.882.944.322 1.776.807 1.776 1.862s-.845 1.901-2.397 1.901m6.255 0c-1.689 0-3.006-1.168-3.006-3.205 0-1.987 1.391-3.204 2.819-3.204 1.652 0 2.546 1.193 2.546 2.906 0 .298-.024.522-.074.746h-3.85c.149 1.018.795 1.614 1.763 1.614.522 0 .994-.149 1.416-.422l.497.919c-.571.422-1.316.646-2.111.646m-1.565-3.85h2.633c0-.895-.422-1.416-1.217-1.416-.696 0-1.292.497-1.416 1.416m5.263 3.7v-6.11h1.205l.112.832h.037c.522-.534 1.105-.981 1.875-.981.894 0 1.404.41 1.689 1.093.584-.621 1.18-1.093 1.962-1.093 1.292 0 1.888.894 1.888 2.434v3.825h-1.478v-3.638c0-.994-.285-1.354-.919-1.354-.372 0-.795.236-1.254.745v4.247h-1.466v-3.638c0-.994-.298-1.354-.919-1.354-.372 0-.794.236-1.254.745v4.247zm10.491 2.397v-8.507h1.205l.111.646h.038c.521-.435 1.167-.795 1.838-.795 1.515 0 2.397 1.23 2.397 3.117 0 2.087-1.242 3.292-2.596 3.292-.546 0-1.08-.249-1.565-.671l.05 1.018v1.9zm2.67-3.465c.795 0 1.416-.695 1.416-2.061 0-1.205-.398-1.913-1.304-1.913-.435 0-.845.211-1.304.671v2.819c.422.36.844.484 1.192.484m6.96 1.218c-1.689 0-3.005-1.168-3.005-3.205 0-1.987 1.391-3.204 2.819-3.204 1.652 0 2.546 1.193 2.546 2.906 0 .298-.025.522-.075.746h-3.85c.149 1.018.795 1.614 1.764 1.614.521 0 .993-.149 1.416-.422l.496.919c-.571.422-1.316.646-2.111.646m-1.565-3.85h2.633c0-.895-.422-1.416-1.217-1.416-.695 0-1.292.497-1.416 1.416m5.264 3.7v-6.11h1.204l.112.82h.037c.547-.522 1.168-.969 2-.969 1.316 0 1.887.894 1.887 2.434v3.825h-1.465v-3.638c0-.994-.286-1.354-.931-1.354-.534 0-.882.248-1.367.745v4.247zm6.961 0v-8.767h1.478v2.26l-.062 1.167c.497-.472 1.105-.919 1.937-.919 1.317 0 1.888.894 1.888 2.434v3.825h-1.466v-3.638c0-.994-.285-1.354-.931-1.354-.534 0-.882.248-1.366.745v4.247zm9.458.15c-1.527 0-2.918-1.168-2.918-3.192 0-2.037 1.391-3.217 2.918-3.217 1.515 0 2.906 1.18 2.906 3.217 0 2.024-1.391 3.192-2.906 3.192m0-1.193c.882 0 1.404-.795 1.404-1.999 0-1.217-.522-2.012-1.404-2.012s-1.403.795-1.403 2.012c0 1.204.522 1.999 1.403 1.999m8.93 1.193c-1.528 0-2.509-1.18-2.509-3.192 0-2 1.242-3.217 2.583-3.217.683 0 1.118.261 1.59.671l-.062-.981v-2.198h1.465v8.767h-1.192l-.112-.658h-.049c-.447.447-1.068.808-1.714.808m.36-1.218c.46 0 .857-.198 1.242-.67v-2.807c-.41-.372-.807-.497-1.217-.497-.758 0-1.391.721-1.391 1.975 0 1.316.497 1.999 1.366 1.999m7.122 1.218c-1.689 0-3.006-1.168-3.006-3.205 0-1.987 1.391-3.204 2.819-3.204 1.652 0 2.546 1.193 2.546 2.906 0 .298-.025.522-.074.746h-3.85c.149 1.018.795 1.614 1.763 1.614.522 0 .994-.149 1.416-.422l.497.919c-.572.422-1.317.646-2.111.646m-1.565-3.85h2.633c0-.895-.423-1.416-1.218-1.416-.695 0-1.291.497-1.415 1.416m7.749 3.7v-6.11h1.205l.112.82h.037c.546-.522 1.167-.969 1.999-.969 1.317 0 1.888.894 1.888 2.434v3.825h-1.465v-3.638c0-.994-.286-1.354-.932-1.354-.534 0-.881.248-1.366.745v4.247zm9.57.15c-1.689 0-3.006-1.168-3.006-3.205 0-1.987 1.391-3.204 2.819-3.204 1.652 0 2.546 1.193 2.546 2.906 0 .298-.024.522-.074.746h-3.85c.149 1.018.795 1.614 1.763 1.614.522 0 .994-.149 1.416-.422l.497.919c-.571.422-1.316.646-2.111.646m-1.565-3.85h2.633c0-.895-.422-1.416-1.217-1.416-.696 0-1.292.497-1.416 1.416m7.278 6.395c-1.453 0-2.546-.521-2.546-1.589 0-.522.323-.956.882-1.304v-.05a1.15 1.15 0 0 1-.559-1.018c0-.472.323-.882.683-1.13v-.05a2.03 2.03 0 0 1-.807-1.615c0-1.403 1.142-2.198 2.422-2.198.335 0 .658.062.906.149h2.186v1.093h-1.093c.186.224.335.596.335 1.006 0 1.354-1.043 2.074-2.334 2.074-.261 0-.547-.05-.82-.149-.174.149-.286.298-.286.571 0 .336.249.534.981.534h1.081c1.453 0 2.235.46 2.235 1.516 0 1.204-1.266 2.16-3.266 2.16m.075-5.551c.571 0 1.03-.435 1.03-1.205 0-.757-.447-1.179-1.03-1.179-.584 0-1.044.422-1.044 1.179 0 .77.472 1.205 1.044 1.205m.149 4.595c.968 0 1.627-.447 1.627-.969 0-.459-.373-.596-1.056-.596h-.82a3.2 3.2 0 0 1-.832-.087c-.323.249-.459.51-.459.795 0 .547.596.857 1.54.857m6.443-1.589c-1.527 0-2.918-1.168-2.918-3.192 0-2.037 1.391-3.217 2.918-3.217 1.516 0 2.906 1.18 2.906 3.217 0 2.024-1.39 3.192-2.906 3.192m0-1.193c.882 0 1.404-.795 1.404-1.999 0-1.217-.522-2.012-1.404-2.012s-1.403.795-1.403 2.012c0 1.204.522 1.999 1.403 1.999m-.521-6.073-.733-.72 2.36-2.173.844.968zm7.375 7.266c-1.665 0-2.956-1.168-2.956-3.192 0-2.037 1.44-3.217 3.08-3.217.77 0 1.341.286 1.788.683l-.708.919c-.31-.273-.621-.397-1.006-.397-.968 0-1.639.795-1.639 2.012 0 1.204.658 1.999 1.59 1.999.484 0 .906-.198 1.254-.484l.596.931a3.03 3.03 0 0 1-1.999.746m3.178-.15v-6.11h1.478v6.11zm.745-7.153c-.522 0-.882-.335-.882-.832s.36-.832.882-.832.882.335.882.832-.36.832-.882.832m5.038 7.303c-1.527 0-2.918-1.168-2.918-3.192 0-2.037 1.391-3.217 2.918-3.217 1.515 0 2.906 1.18 2.906 3.217 0 2.024-1.391 3.192-2.906 3.192m0-1.193c.882 0 1.404-.795 1.404-1.999 0-1.217-.522-2.012-1.404-2.012s-1.403.795-1.403 2.012c0 1.204.522 1.999 1.403 1.999"/><g filter="url(#filter3_i_9533_33665)"><path fill="#fff" d="M275 331h246.311v24.838a2.76 2.76 0 0 1-2.76 2.76H277.76a2.76 2.76 0 0 1-2.76-2.76z"/></g><circle cx="289.178" cy="343.852" r="3.45" fill="#014722"/><path fill="#21232c" d="M298.509 346.44c-1.552 0-2.655-1.13-2.655-3.05 0-1.892 1.139-3.049 2.7-3.049.816 0 1.354.358 1.695.726l-.413.466c-.296-.305-.672-.529-1.264-.529-1.184 0-1.938.906-1.938 2.368 0 1.48.691 2.404 1.947 2.404.421 0 .825-.126 1.058-.341v-1.534h-1.247v-.619h1.938v2.476c-.386.395-1.032.682-1.821.682m4.154 0c-.726 0-1.273-.449-1.273-1.238 0-.969.807-1.435 2.673-1.641-.009-.548-.189-1.077-.897-1.077-.503 0-.96.224-1.301.449l-.287-.503c.404-.269 1.014-.565 1.713-.565 1.059 0 1.516.709 1.516 1.785v2.682h-.61l-.072-.52h-.027c-.412.35-.888.628-1.435.628m.207-.61c.421 0 .771-.189 1.193-.556v-1.184c-1.471.17-1.947.502-1.947 1.067 0 .484.332.673.754.673m3.308.502v-4.359h.61l.063.628h.027c.413-.413.861-.736 1.462-.736.924 0 1.336.592 1.336 1.704v2.763h-.744v-2.664c0-.816-.251-1.157-.825-1.157-.44 0-.754.224-1.184.664v3.157zm4.906 0v-6.386h.744v1.74l-.027.897c.404-.395.843-.718 1.444-.718.924 0 1.337.592 1.337 1.704v2.763h-.745v-2.664c0-.816-.251-1.157-.825-1.157-.44 0-.753.224-1.184.664v3.157zm6.574.108c-1.068 0-2.019-.834-2.019-2.279 0-1.462.951-2.296 2.019-2.296 1.067 0 2.027.834 2.027 2.296 0 1.445-.96 2.279-2.027 2.279m0-.619c.753 0 1.255-.664 1.255-1.66 0-1.004-.502-1.677-1.255-1.677-.745 0-1.247.673-1.247 1.677 0 .996.502 1.66 1.247 1.66"/><circle cx="330.737" cy="343.852" r="3.45" fill="#3dbc62"/><path fill="#21232c" d="M337.754 346.332v-5.884h3.39v.637h-2.637v1.839h2.224v.637h-2.224v2.134h2.727v.637zm4.658 0v-4.359h.61l.063.628h.026c.386-.413.835-.736 1.355-.736.672 0 1.031.314 1.211.825.448-.484.906-.825 1.435-.825.897 0 1.327.592 1.327 1.704v2.763h-.744v-2.664c0-.816-.26-1.157-.808-1.157-.34 0-.69.215-1.094.664v3.157h-.744v-2.664c0-.816-.251-1.157-.807-1.157-.323 0-.682.215-1.086.664v3.157zm10.236.108c-.726 0-1.273-.449-1.273-1.238 0-.969.807-1.435 2.673-1.641-.009-.548-.189-1.077-.897-1.077-.503 0-.96.224-1.301.449l-.287-.503c.404-.269 1.014-.565 1.713-.565 1.059 0 1.516.709 1.516 1.785v2.682h-.61l-.072-.52h-.026c-.413.35-.888.628-1.436.628m.207-.61c.421 0 .771-.189 1.193-.556v-1.184c-1.471.17-1.947.502-1.947 1.067 0 .484.332.673.754.673m5.237.61c-.404 0-.852-.207-1.238-.556h-.027l-.071.448h-.592v-6.386h.744v1.74l-.027.78c.404-.341.888-.601 1.372-.601 1.122 0 1.731.87 1.731 2.216 0 1.489-.896 2.359-1.892 2.359m-.126-.628c.718 0 1.247-.646 1.247-1.722 0-.96-.332-1.597-1.148-1.597-.368 0-.744.197-1.157.592v2.278c.377.332.771.449 1.058.449m4.922.628c-1.166 0-2.081-.843-2.081-2.288 0-1.417.96-2.287 1.955-2.287 1.113 0 1.749.79 1.749 2.045 0 .162-.009.296-.035.44h-2.933c.062.897.609 1.489 1.435 1.489.421 0 .789-.117 1.094-.323l.26.475a2.4 2.4 0 0 1-1.444.449m-1.345-2.664h2.305c0-.861-.404-1.319-1.068-1.319-.61 0-1.148.485-1.237 1.319m4.037 2.556v-4.359h.61l.062.789h.027c.305-.547.754-.897 1.238-.897.197 0 .332.027.466.09l-.161.637a1.3 1.3 0 0 0-.395-.054c-.367 0-.807.26-1.103.996v2.798zm4.49.108c-.933 0-1.247-.592-1.247-1.462v-2.404h-.645v-.556l.681-.045.09-1.399h.619v1.399h1.184v.601h-1.184v2.422c0 .529.179.834.673.834.161 0 .322-.027.502-.108l.152.529a2 2 0 0 1-.825.189m3.24 0c-1.068 0-2.018-.834-2.018-2.279 0-1.462.95-2.296 2.018-2.296s2.027.834 2.027 2.296c0 1.445-.96 2.279-2.027 2.279m0-.619c.753 0 1.256-.664 1.256-1.66 0-1.004-.503-1.677-1.256-1.677-.745 0-1.247.673-1.247 1.677 0 .996.502 1.66 1.247 1.66"/><circle cx="386.296" cy="343.852" r="3.45" fill="#a2b3ac"/><path fill="#21232c" d="M393.313 346.332v-5.884h1.677c1.319 0 2.215.44 2.215 1.731 0 1.247-.887 1.821-2.179 1.821h-.96v2.332zm.753-2.942h.87c1.023 0 1.516-.377 1.516-1.211 0-.843-.52-1.121-1.552-1.121h-.834zm5.803 3.05c-1.166 0-2.081-.843-2.081-2.288 0-1.417.96-2.287 1.956-2.287 1.112 0 1.749.79 1.749 2.045 0 .162-.009.296-.036.44h-2.933c.062.897.61 1.489 1.435 1.489.421 0 .789-.117 1.094-.323l.26.475a2.4 2.4 0 0 1-1.444.449m-1.345-2.664h2.305c0-.861-.404-1.319-1.068-1.319-.609 0-1.148.485-1.237 1.319m4.037 2.556v-4.359h.61l.062.789h.027c.305-.547.754-.897 1.238-.897.197 0 .332.027.466.09l-.161.637a1.3 1.3 0 0 0-.395-.054c-.367 0-.807.26-1.103.996v2.798zm4.519.108c-1.094 0-1.803-.826-1.803-2.279 0-1.417.897-2.296 1.893-2.296.502 0 .834.189 1.22.503l-.036-.745v-1.677h.744v6.386h-.61l-.062-.511h-.027c-.341.332-.807.619-1.319.619m.162-.628c.403 0 .753-.198 1.112-.592v-2.278c-.368-.332-.7-.449-1.058-.449-.691 0-1.247.664-1.247 1.659 0 1.041.43 1.66 1.193 1.66m3.325.52v-4.359h.744v4.359zm.376-5.256c-.287 0-.493-.188-.493-.484 0-.287.206-.485.493-.485s.494.198.494.485c0 .296-.207.484-.494.484m3.328 5.364c-1.094 0-1.802-.826-1.802-2.279 0-1.417.897-2.296 1.892-2.296.502 0 .834.189 1.22.503l-.036-.745v-1.677h.745v6.386h-.61l-.063-.511h-.027c-.341.332-.807.619-1.319.619m.162-.628c.404 0 .753-.198 1.112-.592v-2.278c-.368-.332-.699-.449-1.058-.449-.691 0-1.247.664-1.247 1.659 0 1.041.431 1.66 1.193 1.66m5.02.628c-1.067 0-2.018-.834-2.018-2.279 0-1.462.951-2.296 2.018-2.296s2.027.834 2.027 2.296c0 1.445-.96 2.279-2.027 2.279m0-.619c.753 0 1.256-.664 1.256-1.66 0-1.004-.503-1.677-1.256-1.677-.745 0-1.247.673-1.247 1.677 0 .996.502 1.66 1.247 1.66"/><rect width="188.311" height="176" x="304" y="149" fill="#fff" rx="3.286"/><mask id="path-67-inside-1_9533_33665" fill="#fff"><path d="M462.026 220.215a67.865 67.865 0 0 1-118.737 62.883l54.866-39.943z"/></mask><path fill="#85da95" stroke="#fff" stroke-width=".822" d="M462.026 220.215a67.865 67.865 0 0 1-118.737 62.883l54.866-39.943z" mask="url(#path-67-inside-1_9533_33665)"/><mask id="path-68-inside-2_9533_33665" fill="#fff"><path d="M343.29 283.1a67.87 67.87 0 0 1-12.254-49.988l67.119 10.043z"/></mask><path fill="#a2b3ac" stroke="#fff" stroke-width=".822" d="M343.29 283.1a67.87 67.87 0 0 1-12.254-49.988l67.119 10.043z" mask="url(#path-68-inside-2_9533_33665)"/><mask id="path-69-inside-3_9533_33665" fill="#fff"><path d="M331.044 233.059a67.87 67.87 0 0 1 60.465-57.444 67.87 67.87 0 0 1 70.501 44.555l-63.855 22.985z"/></mask><path fill="#014722" stroke="#fff" stroke-width=".822" d="M331.044 233.059a67.87 67.87 0 0 1 60.465-57.444 67.87 67.87 0 0 1 70.501 44.555l-63.855 22.985z" mask="url(#path-69-inside-3_9533_33665)"/><path fill="#21232c" d="M432.004 176.418v-.938l2.489-2.44q.358-.361.596-.641.237-.28.357-.543.119-.262.119-.56 0-.34-.154-.581a1.03 1.03 0 0 0-.424-.378 1.4 1.4 0 0 0-.613-.133 1.26 1.26 0 0 0-.619.147 1 1 0 0 0-.413.41 1.3 1.3 0 0 0-.144.633h-1.236q0-.683.312-1.187t.858-.78a2.76 2.76 0 0 1 1.26-.277q.721 0 1.267.27t.848.738q.304.47.304 1.072 0 .402-.154.791-.155.388-.543.861-.384.473-1.081 1.145l-1.236 1.257v.049h3.123v1.085zm9.04-7.17v7.17h-1.299v-5.906h-.042l-1.677 1.071v-1.19l1.782-1.145zm12.89 137.748v-.938l2.489-2.44q.357-.361.595-.641t.357-.543.119-.56q0-.34-.154-.581a1 1 0 0 0-.423-.378 1.4 1.4 0 0 0-.613-.133q-.354 0-.62.147a1 1 0 0 0-.413.41 1.3 1.3 0 0 0-.143.633h-1.236q0-.682.312-1.186.31-.505.857-.781a2.76 2.76 0 0 1 1.261-.277q.72 0 1.267.27t.847.738q.305.47.305 1.072 0 .402-.154.791t-.543.861q-.385.473-1.082 1.145l-1.236 1.257v.049h3.123v1.085zm8.696.098q-.756 0-1.344-.259a2.25 2.25 0 0 1-.924-.721 1.87 1.87 0 0 1-.361-1.068h1.316a.87.87 0 0 0 .193.508q.175.213.466.332.29.12.651.119.385 0 .682-.133.298-.137.466-.378a.93.93 0 0 0 .165-.556 1 1 0 0 0-.168-.575 1.13 1.13 0 0 0-.498-.388 1.9 1.9 0 0 0-.777-.14h-.633v-1.001h.633q.375 0 .655-.13.283-.13.445-.364a.94.94 0 0 0 .157-.55.96.96 0 0 0-.136-.528.93.93 0 0 0-.389-.354 1.3 1.3 0 0 0-.585-.126q-.329 0-.609.119a1.1 1.1 0 0 0-.452.34.86.86 0 0 0-.182.518h-1.249q.013-.602.346-1.058a2.25 2.25 0 0 1 .896-.714 3 3 0 0 1 1.257-.259q.718 0 1.247.27.532.266.822.717.291.453.291.998.003.606-.357 1.016a1.68 1.68 0 0 1-.938.535v.056q.756.105 1.158.56.406.452.403 1.124 0 .603-.343 1.078a2.3 2.3 0 0 1-.938.743q-.595.269-1.366.269"/><path stroke="#21232c" stroke-opacity=".12" stroke-width=".822" d="m420.758 178.993 2.829-4.538h5.285m23.44 127.955h-5.762l-3.681-9.588m-125.137-31.088h6.716l8.155-3.297"/><path fill="#21232c" d="m310.429 265.875 3.049-6.036v-.049h-3.539v-1.085h4.884v1.11l-3.046 6.06z"/><path fill="#747678" d="M286.358 151.15v-4.963h2.998v.759h-2.094v1.245h1.776v.758h-1.776v1.442h2.17v.759zm5.679.091c-.683 0-1.32-.25-1.791-.728l.486-.592c.356.341.85.539 1.328.539.546 0 .85-.251.85-.63 0-.395-.319-.524-.767-.714l-.675-.296c-.493-.204-1.002-.592-1.002-1.313 0-.796.698-1.411 1.67-1.411a2.24 2.24 0 0 1 1.54.615l-.485.592c-.311-.266-.676-.418-1.055-.418-.463 0-.759.213-.759.569 0 .38.372.516.782.691l.667.273c.592.251 1.002.623 1.002 1.344 0 .804-.668 1.479-1.791 1.479m3.678-.091v-4.204h-1.427v-.759h3.757v.759h-1.427v4.204zm3.294 0v-4.963h2.998v.759h-2.095v1.245h1.776v.758h-1.776v1.442h2.171v.759zm5.879 0v-4.963h1.062l.85 2.429c.107.318.198.607.289.971h.03c.091-.364.167-.653.273-.971l.85-2.429h1.063v4.963h-.835v-2.261c0-.471.076-1.154.137-1.609h-.031l-.394 1.199-.805 2.216h-.592l-.789-2.216-.395-1.199h-.03c.061.455.136 1.138.136 1.609v2.261zm5.808 0v-4.963h2.998v.759h-2.095v1.245h1.776v.758h-1.776v1.442h2.17v.759zm.744-5.244-.388-.258.729-.842h.972l.728.842-.387.258-.812-.668h-.03zm4.935 5.335c-.684 0-1.321-.25-1.792-.728l.486-.592c.357.341.85.539 1.328.539.547 0 .85-.251.85-.63 0-.395-.318-.524-.766-.714l-.676-.296c-.493-.204-1.002-.592-1.002-1.313 0-.796.699-1.411 1.67-1.411.6 0 1.154.243 1.541.615l-.486.592c-.311-.266-.675-.418-1.055-.418-.463 0-.759.213-.759.569 0 .38.372.516.782.691l.668.273c.592.251 1.002.623 1.002 1.344 0 .804-.668 1.479-1.791 1.479"/><path fill="#e4e6e9" d="M274.689 163.16h645.79v.345h-645.79z"/></g></g><path fill="#fff" fill-rule="evenodd" d="m464.464 361.251.175.233v-6.692c0-1.48 1.165-2.68 2.603-2.68 1.437 0 2.603 1.2 2.603 2.68v-1.787c0-1.479 1.165-2.679 2.602-2.679 1.438 0 2.603 1.2 2.603 2.679l-.068 4.045.068-2.258c0-1.48 1.165-2.68 2.603-2.68 1.437 0 2.602 1.2 2.602 2.68v3.572c0-1.48 1.165-2.679 2.603-2.679 1.437 0 2.603 1.199 2.603 2.679v3.9c0 3.284-.436 6.554-1.295 9.724a6.47 6.47 0 0 1-6.243 4.776h-1.881l-4.655.013a9.31 9.31 0 0 1-8.618-5.96l-3.59-9.306c-.383-1.43.432-2.89 1.821-3.262" clip-rule="evenodd"/><path stroke="#192435" stroke-linecap="round" stroke-linejoin="round" stroke-width="2.25" d="m474.963 358.184-.014.89.101-6.069c0-1.479-1.165-2.679-2.603-2.679-1.437 0-2.602 1.2-2.602 2.679v4.8-3.013c0-1.48-1.166-2.68-2.603-2.68s-2.603 1.2-2.603 2.68v11.039m-.175-4.58-.257-1.088c-.383-1.429-1.819-2.286-3.207-1.914-1.389.372-2.204 1.832-1.821 3.262l3.59 9.306a9.31 9.31 0 0 0 8.618 5.96l4.655-.013h1.881a6.47 6.47 0 0 0 6.243-4.776 37.2 37.2 0 0 0 1.295-9.724v-3.9c0-1.48-1.166-2.679-2.603-2.679s-2.603 1.199-2.603 2.679v1.254-4.826c0-1.48-1.165-2.68-2.602-2.68-1.438 0-2.603 1.2-2.603 2.68l-.101 3.389"/><defs><clipPath id="clip0_9533_33665"><rect width="321.726" height="253.082" x="48" y="33" fill="#fff" rx="8"/></clipPath><clipPath id="clip1_9533_33665"><path fill="#fff" d="M48 90.654h322v.694H48z"/></clipPath><clipPath id="clip2_9533_33665"><path fill="#fff" d="M94.092 124.76h259.06v.694H94.091z"/></clipPath><clipPath id="clip3_9533_33665"><path fill="#fff" d="M94.092 150.639h259.06v.694H94.091z"/></clipPath><clipPath id="clip4_9533_33665"><path fill="#fff" d="M94.092 176.518h259.06v.694H94.091z"/></clipPath><clipPath id="clip5_9533_33665"><path fill="#fff" d="M94.092 202.398h259.06v.694H94.091z"/></clipPath><clipPath id="clip6_9533_33665"><path fill="#fff" d="M94.092 228.277h259.06v.694H94.091z"/></clipPath><clipPath id="clip7_9533_33665"><path fill="#fff" d="M48 254.43h322v.694H48z"/></clipPath><clipPath id="clip8_9533_33665"><rect width="246" height="252" x="275" y="107" fill="#fff" rx="8"/></clipPath><filter id="filter0_d_9533_33665" width="341.726" height="273.082" x="38" y="23" color-interpolation-filters="sRGB" filterUnits="userSpaceOnUse"><feFlood flood-opacity="0" result="BackgroundImageFix"/><feColorMatrix in="SourceAlpha" result="hardAlpha" values="0 0 0 0 0 0 0 0 0 0 0 0 0 0 0 0 0 0 127 0"/><feOffset/><feGaussianBlur stdDeviation="5"/><feComposite in2="hardAlpha" operator="out"/><feColorMatrix values="0 0 0 0 0 0 0 0 0 0 0 0 0 0 0 0 0 0 0.25 0"/><feBlend in2="BackgroundImageFix" result="effect1_dropShadow_9533_33665"/><feBlend in="SourceGraphic" in2="effect1_dropShadow_9533_33665" result="shape"/></filter><filter id="filter1_d_9533_33665" width="266" height="272" x="265" y="97" color-interpolation-filters="sRGB" filterUnits="userSpaceOnUse"><feFlood flood-opacity="0" result="BackgroundImageFix"/><feColorMatrix in="SourceAlpha" result="hardAlpha" values="0 0 0 0 0 0 0 0 0 0 0 0 0 0 0 0 0 0 127 0"/><feOffset/><feGaussianBlur stdDeviation="5"/><feComposite in2="hardAlpha" operator="out"/><feColorMatrix values="0 0 0 0 0 0 0 0 0 0 0 0 0 0 0 0 0 0 0.25 0"/><feBlend in2="BackgroundImageFix" result="effect1_dropShadow_9533_33665"/><feBlend in="SourceGraphic" in2="effect1_dropShadow_9533_33665" result="shape"/></filter><filter id="filter2_ddd_9533_33665" width="250.451" height="255.97" x="272.62" y="105.608" color-interpolation-filters="sRGB" filterUnits="userSpaceOnUse"><feFlood flood-opacity="0" result="BackgroundImageFix"/><feColorMatrix in="SourceAlpha" result="hardAlpha" values="0 0 0 0 0 0 0 0 0 0 0 0 0 0 0 0 0 0 127 0"/><feOffset dy=".69"/><feGaussianBlur stdDeviation="1.035"/><feColorMatrix values="0 0 0 0 0 0 0 0 0 0 0 0 0 0 0 0 0 0 0.07 0"/><feBlend in2="BackgroundImageFix" result="effect1_dropShadow_9533_33665"/><feColorMatrix in="SourceAlpha" result="hardAlpha" values="0 0 0 0 0 0 0 0 0 0 0 0 0 0 0 0 0 0 127 0"/><feOffset dy=".69"/><feGaussianBlur stdDeviation=".69"/><feColorMatrix values="0 0 0 0 0 0 0 0 0 0 0 0 0 0 0 0 0 0 0.06 0"/><feBlend in2="effect1_dropShadow_9533_33665" result="effect2_dropShadow_9533_33665"/><feColorMatrix in="SourceAlpha" result="hardAlpha" values="0 0 0 0 0 0 0 0 0 0 0 0 0 0 0 0 0 0 127 0"/><feOffset/><feGaussianBlur stdDeviation=".345"/><feColorMatrix values="0 0 0 0 0 0 0 0 0 0 0 0 0 0 0 0 0 0 0.05 0"/><feBlend in2="effect2_dropShadow_9533_33665" result="effect3_dropShadow_9533_33665"/><feBlend in="SourceGraphic" in2="effect3_dropShadow_9533_33665" result="shape"/></filter><filter id="filter3_i_9533_33665" width="246.311" height="27.598" x="275" y="331" color-interpolation-filters="sRGB" filterUnits="userSpaceOnUse"><feFlood flood-opacity="0" result="BackgroundImageFix"/><feBlend in="SourceGraphic" in2="BackgroundImageFix" result="shape"/><feColorMatrix in="SourceAlpha" result="hardAlpha" values="0 0 0 0 0 0 0 0 0 0 0 0 0 0 0 0 0 0 127 0"/><feOffset dy=".69"/><feComposite in2="hardAlpha" k2="-1" k3="1" operator="arithmetic"/><feColorMatrix values="0 0 0 0 0.898039 0 0 0 0 0.898039 0 0 0 0 0.898039 0 0 0 1 0"/><feBlend in2="shape" result="effect1_innerShadow_9533_33665"/></filter></defs></svg>